<?xml version="1.0"?>
<svg id="Layer_1" data-name="Layer 1" xmlns="http://www.w3.org/2000/svg" viewBox="0 0 155 155">
  <defs>

  </defs>
  <path fill="#FFFFFF" d="M102.9,66.71c-2.81-4.04-6.6-6.18-10.61-6.74-10.21-1.87-13.8,2.5-14.79,4.19-.99-1.69-4.58-6.06-14.79-4.19-4,.56-7.8,2.71-10.61,6.74-6.3,9.03-2.08,20.79,3.73,26.44,5.88,5.71,13.95,8.96,21.67,6.52,7.72,2.45,15.79-.8,21.67-6.52,5.81-5.65,10.03-17.41,3.73-26.44Z"></path>
  <path fill="#FFFFFF" class="cls-1" d="M74.85,54.51c.3,0,.6.04.9.12.8.23.95,1.1,1.28,1.75.4.78,1.5.99,2.17,1.47.83.59,1.27,1.42,1.48,2.4.14.63.77.47,1.17.26.71-.38,1.48-.64,2.28-.79.85-.16,1.74.08,2.58-.18.72-.22,1.41-.54,2.17-.54,1.03,0,1.55.67,2.08,2.35,1.27,3.96-1.25,6.95-4.97,7.31-.46.04-.79.45-.74.91.01.14.06.28.15.39.9,1.28,1.9,3.21.98,6.89-.1.42-.38.77-.76.97-.5.26-1.05.4-1.62.42-.54.01-1.02-.16-1.54-.31-.56-.15-1.14-.23-1.73-.24-1.18-.04-2.38.08-3.52-.27-.87-.27-3.2-.24-5.09-2.21-.35-.36-.61-1.07-1.1-1.16-.25-.05-.6.2-.84.28-.39.13-.79.2-1.2.2-2.47,0-4.42-2.24-6.13-4.92-.94-1.47-1.63-3.34-1.64-5.09,0-.6.07-1.36.57-1.78.23-.18.5-.28.79-.28.61,0,1.21-.07,1.81-.18.57-.15,1.16-.24,1.76-.25.82,0,1.65.08,2.45.23.57.11,1.11.35,1.67.48.67.15.72-.1.49-.71-.25-.59-.45-1.21-.6-1.83-.68-3.1,2.21-5.68,4.7-5.68Z"></path>
  <circle fill="#FFFFFF" cx="76.25" cy="66.66" r="1.61"></circle>
</svg>