<?xml version="1.0"?>
<svg id="Layer_1" data-name="Layer 1" xmlns="http://www.w3.org/2000/svg" viewBox="0 0 155 155">
  <defs>

  </defs>
  <path fill="#FFFFFF" class="cls-1" d="M74.75,75.21l12.99.76c.71.04,1.31.55,1.47,1.25l3.36,15.13c.22,1-.54,1.95-1.56,1.95h-21.08c-1.07,0-1.84-1.03-1.54-2.06l4.72-15.89c.21-.71.89-1.19,1.63-1.14Z"></path>
  <path fill="#FFFFFF" class="cls-1" d="M87.89,74.92l-13.12-.77c-1.01-.06-2-.33-2.9-.8l-11.23-5.81c-.32-.17-.34-.62-.04-.81l8.31-5.4c.84-.54,1.86-.74,2.84-.56l13.44,2.58c1.04.2,2.04.58,2.95,1.13l7.42,4.47c.1.06.2.13.29.21l3.06,2.52c.38.31.24.93-.24,1.05l-7.95,1.94c-.93.23-1.89.31-2.84.26Z"></path>
  <path fill="#FFFFFF" class="cls-1" d="M60.84,68.83l10.44,5.41c.68.35,1.02,1.14.8,1.88l-5.06,17.03c-.2.68-.83,1.15-1.54,1.15h-12.87c-1.09,0-1.87-1.07-1.52-2.11l7.49-22.44c.31-.93,1.38-1.37,2.26-.92Z"></path>
  <path fill="#FFFFFF" class="cls-1" d="M93.84,93.17l-3.53-15.86c-.17-.77.3-1.53,1.07-1.71l7.7-1.88c.81-.2,1.62.33,1.76,1.15l3.12,17.74c.16.88-.52,1.69-1.42,1.69h-7.3c-.68,0-1.26-.47-1.41-1.13Z"></path>
</svg>