<svg xmlns="http://www.w3.org/2000/svg" viewBox="417 815 2002 197" role="img" aria-label="Yeon Studio">
  <g fill="#fff">
    <path d="M627.83,835.37l-67.89,97.97v59h-42.41v-59l-70.22-97.97h49.98l42.14,68.37,40.35-68.37h48.06Z"/>
    <path d="M793.35,923.76h-98.59v40.36h112.36v28.22h-153.81v-156.97h148.85v27.79h-107.4v33.33h98.59v27.26Z"/>
    <path d="M929.94,996.71c-29.01,0-51.18-6.1-66.51-18.32-20.56-14.98-30.84-36.56-30.84-64.75s10.28-50.33,30.84-64.75c15.33-12.21,37.5-18.32,66.51-18.32s51.18,6.11,66.51,18.32c20.47,14.41,30.71,35.99,30.71,64.75s-10.24,49.77-30.71,64.75c-15.33,12.21-37.5,18.32-66.51,18.32ZM970.01,954.54c9.82-9.58,14.73-23.22,14.73-40.89s-4.94-31.22-14.8-40.84c-9.87-9.62-23.2-14.43-40-14.43s-30.2,4.79-40.21,14.38c-10.01,9.58-15.01,23.22-15.01,40.89s5,31.31,15.01,40.89c10,9.58,23.41,14.38,40.21,14.38s30.16-4.79,40.07-14.38Z"/>
    <path d="M1223.65,992.34h-42.41l-82.89-111.5v111.5h-39.52v-156.97h44.48l80.83,109.58v-109.58h39.52v156.97Z"/>
    <path d="M1427.99,969.87c10,0,18.13-.85,24.37-2.56,11.84-3.26,17.76-9.33,17.76-18.21,0-5.18-2.94-9.19-8.81-12.03-5.88-2.77-15.1-5.22-27.68-7.35l-21.48-3.73c-21.12-3.69-35.71-7.7-43.79-12.03-13.68-7.24-20.52-18.56-20.52-33.97,0-14.06,6.61-25.73,19.83-35.04,13.22-9.3,32.64-13.95,58.25-13.95,21.39,0,39.63,4.38,54.73,13.15,15.1,8.77,23.02,21.49,23.75,38.18h-40.76c-.74-9.44-6.06-16.15-15.97-20.13-6.61-2.63-14.83-3.94-24.65-3.94-10.93,0-19.65,1.7-26.16,5.11-6.52,3.41-9.78,8.16-9.78,14.27,0,5.61,3.21,9.8,9.64,12.57,4.13,1.85,12.94,4.01,26.44,6.5l34.97,6.5c15.33,2.84,26.9,6.64,34.7,11.39,12.12,7.38,18.18,18.07,18.18,32.05s-7.09,26.25-21.27,35.73c-14.18,9.48-34.22,14.22-60.1,14.22s-47.23-4.67-62.38-14c-15.15-9.33-22.72-22.17-22.72-38.5h40.48c1.28,7.17,3.81,12.53,7.57,16.08,6.88,6.46,18.68,9.69,35.39,9.69Z"/>
    <path d="M1689.9,835.59v27.79h-60.72v129.17h-42.69v-129.17h-61v-27.79h164.41Z"/>
    <path d="M1834.75,932.07v-96.48h43.1v96.48c0,16.68-3.35,29.68-10.05,38.98-12.49,17.04-36.31,25.56-71.47,25.56s-59.03-8.52-71.6-25.56c-6.7-9.3-10.05-22.29-10.05-38.98v-96.48h43.1v96.48c0,10.79,1.65,18.67,4.96,23.64,5.14,8.8,16.34,13.2,33.6,13.2s28.32-4.4,33.46-13.2c3.3-4.97,4.96-12.85,4.96-23.64Z"/>
    <path d="M2005.77,992.56h-87.44v-156.97h87.44c12.58.14,23.04,1.28,31.4,3.41,14.23,3.62,25.75,10.26,34.56,19.91,7.07,7.81,11.89,16.26,14.46,25.35,2.57,9.09,3.86,17.75,3.86,25.98,0,20.87-5.42,38.55-16.25,53.03-14.69,19.52-37.36,29.29-68.02,29.29ZM2037.31,875.63c-6.52-8.52-19.42-12.78-38.69-12.78h-39.11v102.45h39.11c20.01,0,33.96-7.63,41.86-22.9,4.31-8.38,6.47-18.35,6.47-29.92,0-15.97-3.21-28.26-9.64-36.85Z"/>
    <path d="M2118.68,835.59h42.14v156.97h-42.14v-156.97Z"/>
    <path d="M2290.12,996.92c-29.01,0-51.18-6.1-66.51-18.32-20.56-14.98-30.84-36.56-30.84-64.75s10.28-50.33,30.84-64.75c15.33-12.21,37.5-18.32,66.51-18.32s51.18,6.11,66.51,18.32c20.47,14.41,30.71,35.99,30.71,64.75s-10.24,49.77-30.71,64.75c-15.33,12.21-37.5,18.32-66.51,18.32ZM2330.19,954.75c9.82-9.58,14.73-23.22,14.73-40.89s-4.94-31.22-14.8-40.84c-9.87-9.62-23.2-14.43-40-14.43s-30.2,4.79-40.21,14.38c-10.01,9.58-15.01,23.22-15.01,40.89s5,31.31,15.01,40.89c10,9.58,23.41,14.38,40.21,14.38s30.16-4.79,40.07-14.38Z"/>
  </g>
</svg>
