
<svg id="Layer_1" data-name="Layer 1" xmlns="http://www.w3.org/2000/svg" xmlns:xlink="http://www.w3.org/1999/xlink" viewBox="598 564 1636 697">
  <defs>

    <clipPath id="clippath">
      <rect class="cls-1" x="1178.69" y="1059.77" width="431.56" height="182.72"></rect>
    </clipPath>
  </defs>
  <g>
    <g>
      <path fill="#FFFFFF" class="cls-2" d="M1347.85,589.8l-67.89,97.97v59h-42.41v-59l-70.22-97.97h49.98l42.14,68.37,40.35-68.37h48.06Z"></path>
      <path fill="#FFFFFF" class="cls-2" d="M1513.36,678.19h-98.59v40.36h112.36v28.22h-153.81v-156.97h148.85v27.79h-107.4v33.33h98.59v27.26Z"></path>
      <path fill="#FFFFFF" class="cls-2" d="M1649.96,751.14c-29.01,0-51.18-6.1-66.51-18.32-20.56-14.98-30.84-36.56-30.84-64.75s10.28-50.33,30.84-64.75c15.33-12.21,37.5-18.32,66.51-18.32s51.18,6.11,66.51,18.32c20.47,14.41,30.71,35.99,30.71,64.75s-10.24,49.77-30.71,64.75c-15.33,12.21-37.5,18.32-66.51,18.32ZM1690.03,708.96c9.82-9.58,14.73-23.22,14.73-40.89s-4.94-31.22-14.8-40.84c-9.87-9.62-23.2-14.43-40-14.43s-30.2,4.79-40.21,14.38c-10.01,9.58-15.01,23.22-15.01,40.89s5,31.31,15.01,40.89c10,9.58,23.41,14.38,40.21,14.38s30.16-4.79,40.07-14.38Z"></path>
      <path fill="#FFFFFF" class="cls-2" d="M1943.67,746.77h-42.41l-82.89-111.5v111.5h-39.52v-156.97h44.48l80.83,109.58v-109.58h39.52v156.97Z"></path>
      <path fill="#FFFFFF" class="cls-2" d="M1257.66,985.8c10,0,18.13-.85,24.37-2.56,11.84-3.26,17.76-9.33,17.76-18.21,0-5.18-2.94-9.19-8.81-12.03-5.88-2.77-15.1-5.22-27.68-7.35l-21.48-3.73c-21.12-3.69-35.71-7.7-43.79-12.03-13.68-7.24-20.52-18.56-20.52-33.97,0-14.06,6.61-25.73,19.83-35.04,13.22-9.3,32.64-13.95,58.25-13.95,21.39,0,39.63,4.38,54.73,13.15,15.1,8.77,23.02,21.49,23.75,38.18h-40.76c-.74-9.44-6.06-16.15-15.97-20.13-6.61-2.63-14.83-3.94-24.65-3.94-10.93,0-19.65,1.7-26.16,5.11-6.52,3.41-9.78,8.16-9.78,14.27,0,5.61,3.21,9.8,9.64,12.57,4.13,1.85,12.94,4.01,26.44,6.5l34.97,6.5c15.33,2.84,26.9,6.64,34.7,11.39,12.12,7.38,18.18,18.07,18.18,32.05s-7.09,26.25-21.27,35.73c-14.18,9.48-34.22,14.22-60.1,14.22s-47.23-4.67-62.38-14c-15.15-9.33-22.72-22.17-22.72-38.5h40.48c1.28,7.17,3.81,12.53,7.57,16.08,6.88,6.46,18.68,9.69,35.39,9.69Z"></path>
      <path fill="#FFFFFF" class="cls-2" d="M1519.56,851.52v27.79h-60.72v129.17h-42.69v-129.17h-61v-27.79h164.41Z"></path>
      <path fill="#FFFFFF" class="cls-2" d="M1664.42,948v-96.48h43.1v96.48c0,16.68-3.35,29.68-10.05,38.98-12.49,17.04-36.31,25.56-71.47,25.56s-59.03-8.52-71.6-25.56c-6.7-9.3-10.05-22.29-10.05-38.98v-96.48h43.1v96.48c0,10.79,1.65,18.67,4.96,23.64,5.14,8.8,16.34,13.2,33.6,13.2s28.32-4.4,33.46-13.2c3.3-4.97,4.96-12.85,4.96-23.64Z"></path>
      <path fill="#FFFFFF" class="cls-2" d="M1835.44,1008.48h-87.44v-156.97h87.44c12.58.14,23.04,1.28,31.4,3.41,14.23,3.62,25.75,10.26,34.56,19.91,7.07,7.81,11.89,16.26,14.46,25.35,2.57,9.09,3.86,17.75,3.86,25.98,0,20.87-5.42,38.55-16.25,53.03-14.69,19.52-37.36,29.29-68.02,29.29ZM1866.97,891.56c-6.52-8.52-19.42-12.78-38.69-12.78h-39.11v102.45h39.11c20.01,0,33.96-7.63,41.86-22.9,4.31-8.38,6.47-18.35,6.47-29.92,0-15.97-3.21-28.26-9.64-36.85Z"></path>
      <path fill="#FFFFFF" class="cls-2" d="M1948.35,851.52h42.14v156.97h-42.14v-156.97Z"></path>
      <path fill="#FFFFFF" class="cls-2" d="M2119.78,1012.85c-29.01,0-51.18-6.1-66.51-18.32-20.56-14.98-30.84-36.56-30.84-64.75s10.28-50.33,30.84-64.75c15.33-12.21,37.5-18.32,66.51-18.32s51.18,6.11,66.51,18.32c20.47,14.41,30.71,35.99,30.71,64.75s-10.24,49.77-30.71,64.75c-15.33,12.21-37.5,18.32-66.51,18.32ZM2159.85,970.68c9.82-9.58,14.73-23.22,14.73-40.89s-4.94-31.22-14.8-40.84c-9.87-9.62-23.2-14.43-40-14.43s-30.2,4.79-40.21,14.38c-10.01,9.58-15.01,23.22-15.01,40.89s5,31.31,15.01,40.89c10,9.58,23.41,14.38,40.21,14.38s30.16-4.79,40.07-14.38Z"></path>
    </g>
    <g>
      <path fill="#FFFFFF" class="cls-2" d="M736.74,1179.8c6.19,4.37,22.93,4.37,48.28,4.37h269.32v-30.74h-272.95v-171.91h-50.61v163.48c0,20.29.92,31.24,5.96,34.8Z"></path>
      <path fill="#FFFFFF" class="cls-2" d="M852.27,819.15l.17-.13c29.21-21.37,43.41-51.41,43.41-91.82s-14.17-71.24-43.33-91.77l-.25-.19c-21.69-17.27-53.79-26.03-95.42-26.03s-73.73,8.76-95.42,26.03l-.26.2c-29.29,20.52-43.52,50.54-43.52,91.76s14.26,70.45,43.6,91.82l.18.14c21.68,17.27,53.79,26.03,95.42,26.03s73.73-8.76,95.42-26.03ZM669.54,727.19c0-27.63,8.05-49.35,23.93-64.56,15.81-15.15,37.13-22.82,63.38-22.82s47.49,7.72,63.11,22.94c15.65,15.26,23.59,36.95,23.59,64.45s-7.9,49.32-23.48,64.53l-.02.02c-15.68,15.16-36.94,22.84-63.2,22.84s-47.57-7.68-63.38-22.83c-15.88-15.21-23.93-36.93-23.93-64.56Z"></path>
      <path fill="#FFFFFF" class="cls-2" d="M853.61,804.72h149.2v208.14h51.53v-427.84h-51.53v64.66h-156.29M874.59,680.4h128.22v93.58h-123.28"></path>
      <polyline class="cls-2" points="782.3 631.09 782.3 585.01 730.78 585.01 730.78 624.39"></polyline>
    </g>
  </g>
  <g class="cls-5">
    <path fill="#FFFFFF" d="M1327.24,1214.94c2.17-4.91,4.58-9.72,7.53-14.2,4.74-6.67,9.4-13.42,13.27-20.64,9.05-16.14,15.1-34,17.01-52.44.45-4.05.42-8.15.68-12.21.06-.3.44-.25.47.05.49,4.09.8,8.21.64,12.33-.9,21.76-8.5,42.8-19.26,61.59-5.57,9.35-11.51,18.96-20.35,25.52"></path>
    <path fill="#FFFFFF" d="M1324.69,1198.12c4.76-.49,9.19-2.44,13.58-4.23,9.54-3.93,18.36-9.39,26.65-15.49-42.37-15.44-62.79,21.31-40.18,19.72h-.05M1511.29,1224.85c-29.47,0-58.66-6.85-85.72-18.35-9.4-3.95-18.62-8.3-27.72-12.88-9.96-5.01-19.84-10.26-30.26-14.27-9.47,6.79-19.52,12.86-30.44,17.02-4.67,1.79-9.48,3.72-14.58,3.6-7.09.11-10.57-6.1-7.47-12.31,2.44-5.11,7.39-8.51,12.39-10.84,12.32-5.53,26.54-3.82,38.99.43,22.17-16.26,43.81-38.81,55.47-63.93,6.32-13.74,9.88-32.37-2.2-43.93-9.41-8.79-23.49-8.26-35.15-5.05-23.19,6.26-53.71,29.15-55.84,54.64-1.01,12.54,8.21,22.34,18.49,28.03,1.01.45.74,1.25-.3.79-5.32-2.52-10.36-6-14.15-10.54-17.14-22.16,6.44-49.62,24.68-62.56,13.32-9.16,29.33-16.29,45.82-14.71,28.1,3.8,30.57,31.71,21.17,53.64-10.8,25.95-32.76,48.27-55.28,64.57,9.95,3.65,19.52,8.46,29.05,12.96,9.87,4.64,19.85,9.05,30.04,12.95,27.19,10.33,56.26,16.32,85.41,15.78,20.28-.53,40.89-3.9,59.33-12.48,5.88-2.85,11.27-6.09,16.29-10.06,4.36-3.55,8.15-7.66,12.15-11.59,2.97-3,5.89-6.04,8.77-9.12-4.24,5.22-8.67,10.42-13.04,15.58-20.31,25.44-54.9,32.44-85.91,32.62"></path>
    <path fill="#FFFFFF" class="cls-4" d="M1406.83,1179.21c5.41-1.37,10.42-3.36,10.42-4.23,0-.37-.26-.5-.92-.5-2.51,0-6.6,2.24-9.5,4.73M1422.14,1180.95c0,.25-.13.5-.53.62-4.62,1.62-10.29,3.36-15.18,3.36-2.64,0-3.43-.74-3.43-1.87,0-.62.26-1.24.79-1.99l-1.98.5c-.26,0-.53-.12-.53-.37s.13-.5.53-.63l3.16-.87c4.36-3.99,8.71-6.22,11.48-6.22,1.19,0,1.98.62,1.98,1.37,0,1.86-5.94,3.85-13.07,5.72-.79.75-1.19,1.62-1.19,2.24,0,.5.26,1.12,2.51,1.12,4.36,0,10.16-1.74,14.91-3.36.26,0,.53.13.53.37"></path>
    <path fill="#FFFFFF" class="cls-4" d="M1406.83,1179.21c5.41-1.37,10.42-3.36,10.42-4.23,0-.37-.26-.5-.92-.5-2.51,0-6.6,2.24-9.5,4.73ZM1422.14,1180.95c0,.25-.13.5-.53.62-4.62,1.62-10.29,3.36-15.18,3.36-2.64,0-3.43-.74-3.43-1.87,0-.62.26-1.24.79-1.99l-1.98.5c-.26,0-.53-.12-.53-.37s.13-.5.53-.63l3.16-.87c4.36-3.99,8.71-6.22,11.48-6.22,1.19,0,1.98.62,1.98,1.37,0,1.86-5.94,3.85-13.07,5.72-.79.75-1.19,1.62-1.19,2.24,0,.5.26,1.12,2.51,1.12,4.36,0,10.16-1.74,14.91-3.36.26,0,.53.13.53.37Z"></path>
    <path fill="#FFFFFF" class="cls-4" d="M1437.86,1174.38c36.99-16.23,63.08-43.57,63.08-48.57,0-1.25-.56-1.66-1.67-1.66-4.05,0-12.28,5.13-31.96,23.73-10.89,10.27-22.19,19.84-29.45,26.5M1422.65,1180.77c0-.28.14-.55.56-.69,3.77-1.25,7.4-2.63,11.03-4.02,7.11-7.08,20.1-17.35,32.37-29.14,18.84-18.04,28.05-23.86,32.8-23.86,1.95,0,2.65.83,2.65,2.77,0,5.42-28.05,35.11-66.71,51.06-3.21,3.05-5.02,5.27-5.02,6.25,0,.42.56.69,1.53.69,2.23,0,10.74-2.92,18.84-8.33,0-2.22,2.37-4.02,3.63-4.02.56,0,.84.42.84.97,0,.83-.98,1.8-3.07,3.19.14.83,2.65,1.11,6,1.11.28,0,.56.27.56.55s-.28.56-.56.56c-3.49,0-6.28-.28-7.11-1.39-8.24,5.55-16.75,8.47-19.4,8.47-1.67,0-2.65-.56-2.65-1.53,0-1.25,1.12-3.05,3.35-5.41-3.07,1.25-6,2.22-9.07,3.19-.28,0-.56-.14-.56-.42"></path>
    <path fill="#FFFFFF" class="cls-4" d="M1437.86,1174.38c36.99-16.23,63.08-43.57,63.08-48.57,0-1.25-.56-1.66-1.67-1.66-4.05,0-12.28,5.13-31.96,23.73-10.89,10.27-22.19,19.84-29.45,26.5ZM1422.65,1180.77c0-.28.14-.55.56-.69,3.77-1.25,7.4-2.63,11.03-4.02,7.11-7.08,20.1-17.35,32.37-29.14,18.84-18.04,28.05-23.86,32.8-23.86,1.95,0,2.65.83,2.65,2.77,0,5.42-28.05,35.11-66.71,51.06-3.21,3.05-5.02,5.27-5.02,6.25,0,.42.56.69,1.53.69,2.23,0,10.74-2.92,18.84-8.33,0-2.22,2.37-4.02,3.63-4.02.56,0,.84.42.84.97,0,.83-.98,1.8-3.07,3.19.14.83,2.65,1.11,6,1.11.28,0,.56.27.56.55s-.28.56-.56.56c-3.49,0-6.28-.28-7.11-1.39-8.24,5.55-16.75,8.47-19.4,8.47-1.67,0-2.65-.56-2.65-1.53,0-1.25,1.12-3.05,3.35-5.41-3.07,1.25-6,2.22-9.07,3.19-.28,0-.56-.14-.56-.42Z"></path>
    <path fill="#FFFFFF" class="cls-4" d="M1466.19,1177.09c4.22-.5,8.05-1.37,8.05-2.11,0-.37-.26-.5-.92-.5-1.98,0-4.75,1.12-7.13,2.61M1479.12,1180.95c0,.25-.13.5-.53.62-4.62,1.62-10.3,3.36-15.18,3.36-2.64,0-3.43-.74-3.43-1.87,0-1.37,1.19-3.11,2.9-4.6-1.45.12-2.9.12-4.09.12-.26,0-.53-.25-.53-.5s.26-.5.53-.5c1.58,0,3.43,0,5.41-.25,2.9-2.12,6.6-3.86,9.24-3.86,1.19,0,1.98.62,1.98,1.49,0,1.49-5.41,2.74-10.95,3.36-1.98,1.49-3.3,3.23-3.3,4.48,0,.5.26,1.12,2.51,1.12,4.36,0,10.16-1.74,14.92-3.36.26,0,.53.13.53.37"></path>
    <path fill="#FFFFFF" class="cls-4" d="M1466.19,1177.09c4.22-.5,8.05-1.37,8.05-2.11,0-.37-.26-.5-.92-.5-1.98,0-4.75,1.12-7.13,2.61ZM1479.12,1180.95c0,.25-.13.5-.53.62-4.62,1.62-10.3,3.36-15.18,3.36-2.64,0-3.43-.74-3.43-1.87,0-1.37,1.19-3.11,2.9-4.6-1.45.12-2.9.12-4.09.12-.26,0-.53-.25-.53-.5s.26-.5.53-.5c1.58,0,3.43,0,5.41-.25,2.9-2.12,6.6-3.86,9.24-3.86,1.19,0,1.98.62,1.98,1.49,0,1.49-5.41,2.74-10.95,3.36-1.98,1.49-3.3,3.23-3.3,4.48,0,.5.26,1.12,2.51,1.12,4.36,0,10.16-1.74,14.92-3.36.26,0,.53.13.53.37Z"></path>
    <path fill="#FFFFFF" class="cls-4" d="M1509.76,1180.97c0,.25-.14.5-.54.62-9.18,2.74-15.26,3.48-19.18,3.48-2.7,0-3.64-.87-3.64-1.99,0-1.37,1.35-3.23,3.24-4.6l-.13-.12c-2.97,1.12-5.4,1.99-9.32,3.23-.27,0-.54-.12-.54-.37s.14-.5.54-.63c5.27-1.74,6.21-1.99,12.56-4.48,4.05-1.62,8.24-2.49,9.86-2.49,1.75,0,2.7.37,2.7,1.74,0,.75-.68,1.37-1.62,1.37-.81,0-1.48-.62-1.48-1.37,0-.25,0-.49.14-.74-6.21,0-14.72,5.73-14.72,8.21,0,.74.41,1.25,2.7,1.25,3.38,0,9.05-.5,18.91-3.49.27,0,.54.13.54.37"></path>
    <path fill="#FFFFFF" class="cls-4" d="M1509.76,1180.97c0,.25-.14.5-.54.62-9.18,2.74-15.26,3.48-19.18,3.48-2.7,0-3.64-.87-3.64-1.99,0-1.37,1.35-3.23,3.24-4.6l-.13-.12c-2.97,1.12-5.4,1.99-9.32,3.23-.27,0-.54-.12-.54-.37s.14-.5.54-.63c5.27-1.74,6.21-1.99,12.56-4.48,4.05-1.62,8.24-2.49,9.86-2.49,1.75,0,2.7.37,2.7,1.74,0,.75-.68,1.37-1.62,1.37-.81,0-1.48-.62-1.48-1.37,0-.25,0-.49.14-.74-6.21,0-14.72,5.73-14.72,8.21,0,.74.41,1.25,2.7,1.25,3.38,0,9.05-.5,18.91-3.49.27,0,.54.13.54.37Z"></path>
    <path fill="#FFFFFF" class="cls-4" d="M1540.39,1180.97c0,.25-.14.5-.54.62-9.18,2.74-15.26,3.48-19.18,3.48-2.7,0-3.64-.87-3.64-1.99,0-1.37,1.35-3.23,3.24-4.6l-.14-.12c-2.97,1.12-5.4,1.99-9.32,3.23-.27,0-.54-.12-.54-.37s.14-.5.54-.63c5.27-1.74,6.21-1.99,12.56-4.48,4.05-1.62,8.24-2.49,9.86-2.49,1.75,0,2.7.37,2.7,1.74,0,.75-.68,1.37-1.62,1.37-.81,0-1.48-.62-1.48-1.37,0-.25,0-.49.13-.74-6.21,0-14.72,5.73-14.72,8.21,0,.74.41,1.25,2.7,1.25,3.38,0,9.05-.5,18.91-3.49.27,0,.54.13.54.37"></path>
    <path fill="#FFFFFF" class="cls-4" d="M1540.39,1180.97c0,.25-.14.5-.54.62-9.18,2.74-15.26,3.48-19.18,3.48-2.7,0-3.64-.87-3.64-1.99,0-1.37,1.35-3.23,3.24-4.6l-.14-.12c-2.97,1.12-5.4,1.99-9.32,3.23-.27,0-.54-.12-.54-.37s.14-.5.54-.63c5.27-1.74,6.21-1.99,12.56-4.48,4.05-1.62,8.24-2.49,9.86-2.49,1.75,0,2.7.37,2.7,1.74,0,.75-.68,1.37-1.62,1.37-.81,0-1.48-.62-1.48-1.37,0-.25,0-.49.13-.74-6.21,0-14.72,5.73-14.72,8.21,0,.74.41,1.25,2.7,1.25,3.38,0,9.05-.5,18.91-3.49.27,0,.54.13.54.37Z"></path>
    <path fill="#FFFFFF" class="cls-4" d="M1573.69,1175.37c-.82-.37-2.18-.62-3.42-.62-9.97,0-21.17,5.32-21.17,8.05,0,.62.82.74,1.78.74,4.51,0,10.38-1.98,22.81-8.18M1579.56,1180.95c0,.25-.14.5-.55.62-6.56,2.35-9.7,3.22-11.89,3.22-1.64,0-2.59-.5-2.59-1.37,0-1.11.55-2.23,2.73-3.96-8.06,3.71-12.7,5.08-16.39,5.08-1.78,0-3.14-.5-3.14-1.74s1.78-3.1,4.64-4.71c-5.05,1.74-7.79,2.48-10.93,3.47-.27,0-.55-.12-.55-.37s.14-.49.55-.62c5.6-1.74,11.75-3.59,16.67-4.95,3.68-.99,7.79-1.86,12.16-1.86,1.64,0,3.15.25,4.65.99l.68-.37.41.62c-8.61,4.83-10.11,6.81-10.11,8.05,0,.37.55.74,1.5.74,1.64,0,4.78-.87,11.61-3.22.27,0,.55.12.55.37"></path>
    <path fill="#FFFFFF" class="cls-4" d="M1573.69,1175.37c-.82-.37-2.18-.62-3.42-.62-9.97,0-21.17,5.32-21.17,8.05,0,.62.82.74,1.78.74,4.51,0,10.38-1.98,22.81-8.18ZM1579.56,1180.95c0,.25-.14.5-.55.62-6.56,2.35-9.7,3.22-11.89,3.22-1.64,0-2.59-.5-2.59-1.37,0-1.11.55-2.23,2.73-3.96-8.06,3.71-12.7,5.08-16.39,5.08-1.78,0-3.14-.5-3.14-1.74s1.78-3.1,4.64-4.71c-5.05,1.74-7.79,2.48-10.93,3.47-.27,0-.55-.12-.55-.37s.14-.49.55-.62c5.6-1.74,11.75-3.59,16.67-4.95,3.68-.99,7.79-1.86,12.16-1.86,1.64,0,3.15.25,4.65.99l.68-.37.41.62c-8.61,4.83-10.11,6.81-10.11,8.05,0,.37.55.74,1.5.74,1.64,0,4.78-.87,11.61-3.22.27,0,.55.12.55.37Z"></path>
    <path fill="#FFFFFF" class="cls-3" d="M1199.54,1173.6c41.22-18.1,70.31-48.59,70.31-54.16,0-1.39-.62-1.85-1.87-1.85-4.51,0-13.68,5.73-35.62,26.46-12.14,11.45-24.73,22.13-32.82,29.56M1182.59,1180.71c0-.31.16-.62.62-.77,4.2-1.39,8.25-2.94,12.29-4.49,7.93-7.89,22.39-19.34,36.08-32.5,21-20.11,31.26-26.61,36.55-26.61,2.18,0,2.96.93,2.96,3.09,0,6.04-31.27,39.15-74.35,56.94-3.58,3.41-5.6,5.88-5.6,6.96,0,.47.62.78,1.71.78,2.49,0,11.98-3.25,21-9.29,0-2.47,2.64-4.48,4.04-4.48.63,0,.94.46.94,1.08,0,.93-1.09,2.01-3.42,3.56.16.93,2.95,1.24,6.68,1.24.31,0,.63.31.63.62s-.32.62-.63.62c-3.89,0-7-.31-7.93-1.55-9.18,6.19-18.66,9.44-21.62,9.44-1.87,0-2.95-.62-2.95-1.7,0-1.39,1.24-3.41,3.74-6.04-3.42,1.39-6.69,2.48-10.11,3.56-.31,0-.62-.16-.62-.47"></path>
    <path fill="#FFFFFF" class="cls-4" d="M1199.54,1173.6c41.22-18.1,70.31-48.59,70.31-54.16,0-1.39-.62-1.85-1.87-1.85-4.51,0-13.68,5.73-35.62,26.46-12.14,11.45-24.73,22.13-32.82,29.56ZM1182.59,1180.71c0-.31.16-.62.62-.77,4.2-1.39,8.25-2.94,12.29-4.49,7.93-7.89,22.39-19.34,36.08-32.5,21-20.11,31.26-26.61,36.55-26.61,2.18,0,2.96.93,2.96,3.09,0,6.04-31.27,39.15-74.35,56.94-3.58,3.41-5.6,5.88-5.6,6.96,0,.47.62.78,1.71.78,2.49,0,11.98-3.25,21-9.29,0-2.47,2.64-4.48,4.04-4.48.63,0,.94.46.94,1.08,0,.93-1.09,2.01-3.42,3.56.16.93,2.95,1.24,6.68,1.24.31,0,.63.31.63.62s-.32.62-.63.62c-3.89,0-7-.31-7.93-1.55-9.18,6.19-18.66,9.44-21.62,9.44-1.87,0-2.95-.62-2.95-1.7,0-1.39,1.24-3.41,3.74-6.04-3.42,1.39-6.69,2.48-10.11,3.56-.31,0-.62-.16-.62-.47Z"></path>
    <path fill="#FFFFFF" class="cls-4" d="M1242.74,1193.09c-34.7,16.18-62.24,38.82-62.24,45.6,0,1.23.62,1.69,1.87,1.69,2.95,0,15.72-7.24,35.32-24.8,10.42-9.24,17.89-16.02,25.05-22.49M1269.35,1182c0,.31-.16.62-.62.77-7.63,2.47-15.25,5.39-22.41,8.63-8.4,7.39-15.72,14.17-28.01,25.26-19.76,17.72-32.52,25.26-36.1,25.26-2.18,0-2.95-.92-2.95-3.08,0-8.01,29.25-31.58,66.44-48.37,4.36-3.7,8.87-7.7,13.84-12.02-11.36,6.63-18.98,8.94-23.03,8.94-1.87,0-2.95-.62-2.95-1.69,0-3.54,10.27-7.55,10.27-9.86,0-.77-.63-1.08-1.71-1.08-3.89,0-13.07,4.32-20.07,4.32-.31,0-.62-.31-.62-.62s.31-.62.62-.62c7.32,0,15.87-4.31,20.38-4.31,1.87,0,2.95.46,2.95,1.84,0,3.7-10.27,8.01-10.27,10.01,0,.62.63.77,1.71.77,4.2,0,13.85-3.39,28.63-12.63l.63.92c-7,5.85-12.29,10.32-17.12,14.48,6.38-2.62,13.07-5.08,19.76-7.39.31,0,.62.16.62.46"></path>
    <path fill="#FFFFFF" class="cls-4" d="M1242.74,1193.09c-34.7,16.18-62.24,38.82-62.24,45.6,0,1.23.62,1.69,1.87,1.69,2.95,0,15.72-7.24,35.32-24.8,10.42-9.24,17.89-16.02,25.05-22.49ZM1269.35,1182c0,.31-.16.62-.62.77-7.63,2.47-15.25,5.39-22.41,8.63-8.4,7.39-15.72,14.17-28.01,25.26-19.76,17.72-32.52,25.26-36.1,25.26-2.18,0-2.95-.92-2.95-3.08,0-8.01,29.25-31.58,66.44-48.37,4.36-3.7,8.87-7.7,13.84-12.02-11.36,6.63-18.98,8.94-23.03,8.94-1.87,0-2.95-.62-2.95-1.69,0-3.54,10.27-7.55,10.27-9.86,0-.77-.63-1.08-1.71-1.08-3.89,0-13.07,4.32-20.07,4.32-.31,0-.62-.31-.62-.62s.31-.62.62-.62c7.32,0,15.87-4.31,20.38-4.31,1.87,0,2.95.46,2.95,1.84,0,3.7-10.27,8.01-10.27,10.01,0,.62.63.77,1.71.77,4.2,0,13.85-3.39,28.63-12.63l.63.92c-7,5.85-12.29,10.32-17.12,14.48,6.38-2.62,13.07-5.08,19.76-7.39.31,0,.62.16.62.46Z"></path>
  </g>
</svg>