<?xml version="1.0"?>
<svg id="Layer_1" data-name="Layer 1" xmlns="http://www.w3.org/2000/svg" xmlns:xlink="http://www.w3.org/1999/xlink" viewBox="0 0 8032.02 3774.03">
  <defs>

    <clipPath id="clippath">
      <rect class="cls-1" x="1207.03" y="1090" width="431.56" height="182.72"></rect>
    </clipPath>
    <clipPath id="clippath-1">
      <rect class="cls-1" x="4100.37" y="2976.2" width="431.56" height="182.72"></rect>
    </clipPath>
    <clipPath id="clippath-2">
      <rect class="cls-1" x="4100.37" y="1090" width="431.56" height="182.72"></rect>
    </clipPath>
    <clipPath id="clippath-3">
      <rect class="cls-1" x="6993.71" y="1090" width="431.56" height="182.72"></rect>
    </clipPath>
    <clipPath id="clippath-4">
      <rect class="cls-1" x="1207.03" y="2976.2" width="431.56" height="182.72"></rect>
    </clipPath>
    <clipPath id="clippath-5">
      <rect class="cls-1" x="4179.11" y="2478.47" width="9.45" height="4"></rect>
    </clipPath>
  </defs>
  <rect class="cls-15" y="1886.08" width="2883.36" height="1887.96"></rect>
  <rect class="cls-5" x="2901.68" y="1886.08" width="2883.36" height="1887.96"></rect>
  <rect class="cls-3" x="2901.68" width="2883.36" height="1887.96"></rect>
  <g>
    <g>
      <g>
        <path class="cls-3" d="M1376.2,620.03l-67.89,97.97v59h-42.41v-59l-70.22-97.97h49.98l42.14,68.37,40.35-68.37h48.06Z"></path>
        <path class="cls-3" d="M1541.71,708.41h-98.59v40.36h112.36v28.22h-153.81v-156.97h148.85v27.79h-107.4v33.33h98.59v27.26Z"></path>
        <path class="cls-3" d="M1678.31,781.36c-29.01,0-51.18-6.1-66.51-18.32-20.56-14.98-30.84-36.56-30.84-64.75s10.28-50.33,30.84-64.75c15.33-12.21,37.5-18.32,66.51-18.32s51.18,6.11,66.51,18.32c20.47,14.41,30.71,35.99,30.71,64.75s-10.24,49.77-30.71,64.75c-15.33,12.21-37.5,18.32-66.51,18.32ZM1718.38,739.19c9.82-9.58,14.73-23.22,14.73-40.89s-4.94-31.22-14.8-40.84c-9.87-9.62-23.2-14.43-40-14.43s-30.2,4.79-40.21,14.38c-10.01,9.58-15.01,23.22-15.01,40.89s5,31.31,15.01,40.89c10,9.58,23.41,14.38,40.21,14.38s30.16-4.79,40.07-14.38Z"></path>
        <path class="cls-3" d="M1972.02,777h-42.41l-82.89-111.5v111.5h-39.52v-156.97h44.48l80.83,109.58v-109.58h39.52v156.97Z"></path>
        <path class="cls-3" d="M1286.01,1016.03c10,0,18.13-.85,24.37-2.56,11.84-3.26,17.76-9.33,17.76-18.21,0-5.18-2.94-9.19-8.81-12.03-5.88-2.77-15.1-5.22-27.68-7.35l-21.48-3.73c-21.12-3.69-35.71-7.7-43.79-12.03-13.68-7.24-20.52-18.56-20.52-33.97,0-14.06,6.61-25.73,19.83-35.04,13.22-9.3,32.64-13.95,58.25-13.95,21.39,0,39.63,4.38,54.73,13.15,15.1,8.77,23.02,21.49,23.75,38.18h-40.76c-.74-9.44-6.06-16.15-15.97-20.13-6.61-2.63-14.83-3.94-24.65-3.94-10.93,0-19.65,1.7-26.16,5.11-6.52,3.41-9.78,8.16-9.78,14.27,0,5.61,3.21,9.8,9.64,12.57,4.13,1.85,12.94,4.01,26.44,6.5l34.97,6.5c15.33,2.84,26.9,6.64,34.7,11.39,12.12,7.38,18.18,18.07,18.18,32.05s-7.09,26.25-21.27,35.73c-14.18,9.48-34.22,14.22-60.1,14.22s-47.23-4.67-62.38-14c-15.15-9.33-22.72-22.17-22.72-38.5h40.48c1.28,7.17,3.81,12.53,7.57,16.08,6.88,6.46,18.68,9.69,35.39,9.69Z"></path>
        <path class="cls-3" d="M1547.91,881.74v27.79h-60.72v129.17h-42.69v-129.17h-61v-27.79h164.41Z"></path>
        <path class="cls-3" d="M1692.76,978.22v-96.48h43.1v96.48c0,16.68-3.35,29.68-10.05,38.98-12.49,17.04-36.31,25.56-71.47,25.56s-59.03-8.52-71.6-25.56c-6.7-9.3-10.05-22.29-10.05-38.98v-96.48h43.1v96.48c0,10.79,1.65,18.67,4.96,23.64,5.14,8.8,16.34,13.2,33.6,13.2s28.32-4.4,33.46-13.2c3.3-4.97,4.96-12.85,4.96-23.64Z"></path>
        <path class="cls-3" d="M1863.78,1038.71h-87.44v-156.97h87.44c12.58.14,23.04,1.28,31.4,3.41,14.23,3.62,25.75,10.26,34.56,19.91,7.07,7.81,11.89,16.26,14.46,25.35,2.57,9.09,3.86,17.75,3.86,25.98,0,20.87-5.42,38.55-16.25,53.03-14.69,19.52-37.36,29.29-68.02,29.29ZM1895.32,921.78c-6.52-8.52-19.42-12.78-38.69-12.78h-39.11v102.45h39.11c20.01,0,33.96-7.63,41.86-22.9,4.31-8.38,6.47-18.35,6.47-29.92,0-15.97-3.21-28.26-9.64-36.85Z"></path>
        <path class="cls-3" d="M1976.7,881.74h42.14v156.97h-42.14v-156.97Z"></path>
        <path class="cls-3" d="M2148.13,1043.08c-29.01,0-51.18-6.1-66.51-18.32-20.56-14.98-30.84-36.56-30.84-64.75s10.28-50.33,30.84-64.75c15.33-12.21,37.5-18.32,66.51-18.32s51.18,6.11,66.51,18.32c20.47,14.41,30.71,35.99,30.71,64.75s-10.24,49.77-30.71,64.75c-15.33,12.21-37.5,18.32-66.51,18.32ZM2188.2,1000.91c9.82-9.58,14.73-23.22,14.73-40.89s-4.94-31.22-14.8-40.84c-9.87-9.62-23.2-14.43-40-14.43s-30.2,4.79-40.21,14.38c-10.01,9.58-15.01,23.22-15.01,40.89s5,31.31,15.01,40.89c10,9.58,23.41,14.38,40.21,14.38s30.16-4.79,40.07-14.38Z"></path>
      </g>
      <g>
        <path class="cls-3" d="M765.08,1210.02c6.19,4.37,22.93,4.37,48.28,4.37h269.32v-30.74h-272.95v-171.91h-50.61v163.48c0,20.29.92,31.24,5.96,34.8Z"></path>
        <path class="cls-3" d="M880.61,849.37l.17-.13c29.21-21.37,43.41-51.41,43.41-91.82s-14.17-71.24-43.33-91.77l-.25-.19c-21.69-17.27-53.79-26.03-95.42-26.03s-73.73,8.76-95.42,26.03l-.26.2c-29.29,20.52-43.52,50.54-43.52,91.76s14.26,70.45,43.6,91.82l.18.14c21.68,17.27,53.79,26.03,95.42,26.03s73.73-8.76,95.42-26.03ZM697.89,757.42c0-27.63,8.05-49.35,23.93-64.56,15.81-15.15,37.13-22.82,63.38-22.82s47.49,7.72,63.11,22.94c15.65,15.26,23.59,36.95,23.59,64.45s-7.9,49.32-23.48,64.53l-.02.02c-15.68,15.16-36.94,22.84-63.2,22.84s-47.57-7.68-63.38-22.83c-15.88-15.21-23.93-36.93-23.93-64.56Z"></path>
        <path class="cls-3" d="M881.96,834.94h149.2v208.14h51.53v-427.84h-51.53v64.66h-156.29M902.94,710.63h128.22v93.58h-123.28"></path>
        <polyline class="cls-3" points="810.65 661.32 810.65 615.23 759.12 615.23 759.12 654.62"></polyline>
      </g>
    </g>
    <g class="cls-16">
      <path d="M1355.59,1245.16c2.17-4.91,4.58-9.72,7.53-14.2,4.74-6.67,9.4-13.42,13.27-20.64,9.05-16.14,15.1-34,17.01-52.44.45-4.05.42-8.15.68-12.21.06-.3.44-.25.47.05.49,4.09.8,8.21.64,12.33-.9,21.76-8.5,42.8-19.26,61.59-5.57,9.35-11.51,18.96-20.35,25.52"></path>
      <path d="M1353.04,1228.35c4.76-.49,9.19-2.44,13.58-4.23,9.54-3.93,18.36-9.39,26.65-15.49-42.37-15.44-62.79,21.31-40.18,19.72h-.05M1539.64,1255.07c-29.47,0-58.66-6.85-85.72-18.35-9.4-3.95-18.62-8.3-27.72-12.88-9.96-5.01-19.84-10.26-30.26-14.27-9.47,6.79-19.52,12.86-30.44,17.02-4.67,1.79-9.48,3.72-14.58,3.6-7.09.11-10.57-6.1-7.47-12.31,2.44-5.11,7.39-8.51,12.39-10.84,12.32-5.53,26.54-3.82,38.99.43,22.17-16.26,43.81-38.81,55.47-63.93,6.32-13.74,9.88-32.37-2.2-43.93-9.41-8.79-23.49-8.26-35.15-5.05-23.19,6.26-53.71,29.15-55.84,54.64-1.01,12.54,8.21,22.34,18.49,28.03,1.01.45.74,1.25-.3.79-5.32-2.52-10.36-6-14.15-10.54-17.14-22.16,6.44-49.62,24.68-62.56,13.32-9.16,29.33-16.29,45.82-14.71,28.1,3.8,30.57,31.71,21.17,53.64-10.8,25.95-32.76,48.27-55.28,64.57,9.95,3.65,19.52,8.46,29.05,12.96,9.87,4.64,19.85,9.05,30.04,12.95,27.19,10.33,56.26,16.32,85.41,15.78,20.28-.53,40.89-3.9,59.33-12.48,5.88-2.85,11.27-6.09,16.29-10.06,4.36-3.55,8.15-7.66,12.15-11.59,2.97-3,5.89-6.04,8.77-9.12-4.24,5.22-8.67,10.42-13.04,15.58-20.31,25.44-54.9,32.44-85.91,32.62"></path>
      <path class="cls-7" d="M1435.17,1209.43c5.41-1.37,10.42-3.36,10.42-4.23,0-.37-.26-.5-.92-.5-2.51,0-6.6,2.24-9.5,4.73M1450.49,1211.17c0,.25-.13.5-.53.62-4.62,1.62-10.29,3.36-15.18,3.36-2.64,0-3.43-.74-3.43-1.87,0-.62.26-1.24.79-1.99l-1.98.5c-.26,0-.53-.12-.53-.37s.13-.5.53-.63l3.16-.87c4.36-3.99,8.71-6.22,11.48-6.22,1.19,0,1.98.62,1.98,1.37,0,1.86-5.94,3.85-13.07,5.72-.79.75-1.19,1.62-1.19,2.24,0,.5.26,1.12,2.51,1.12,4.36,0,10.16-1.74,14.91-3.36.26,0,.53.13.53.37"></path>
      <path class="cls-7" d="M1435.17,1209.43c5.41-1.37,10.42-3.36,10.42-4.23,0-.37-.26-.5-.92-.5-2.51,0-6.6,2.24-9.5,4.73ZM1450.49,1211.17c0,.25-.13.5-.53.62-4.62,1.62-10.29,3.36-15.18,3.36-2.64,0-3.43-.74-3.43-1.87,0-.62.26-1.24.79-1.99l-1.98.5c-.26,0-.53-.12-.53-.37s.13-.5.53-.63l3.16-.87c4.36-3.99,8.71-6.22,11.48-6.22,1.19,0,1.98.62,1.98,1.37,0,1.86-5.94,3.85-13.07,5.72-.79.75-1.19,1.62-1.19,2.24,0,.5.26,1.12,2.51,1.12,4.36,0,10.16-1.74,14.91-3.36.26,0,.53.13.53.37Z"></path>
      <path class="cls-7" d="M1466.21,1204.61c36.99-16.23,63.08-43.57,63.08-48.57,0-1.25-.56-1.66-1.67-1.66-4.05,0-12.28,5.13-31.96,23.73-10.89,10.27-22.19,19.84-29.45,26.5M1451,1210.99c0-.28.14-.55.56-.69,3.77-1.25,7.4-2.63,11.03-4.02,7.11-7.08,20.1-17.35,32.37-29.14,18.84-18.04,28.05-23.86,32.8-23.86,1.95,0,2.65.83,2.65,2.77,0,5.42-28.05,35.11-66.71,51.06-3.21,3.05-5.02,5.27-5.02,6.25,0,.42.56.69,1.53.69,2.23,0,10.74-2.92,18.84-8.33,0-2.22,2.37-4.02,3.63-4.02.56,0,.84.42.84.97,0,.83-.98,1.8-3.07,3.19.14.83,2.65,1.11,6,1.11.28,0,.56.27.56.55s-.28.56-.56.56c-3.49,0-6.28-.28-7.11-1.39-8.24,5.55-16.75,8.47-19.4,8.47-1.67,0-2.65-.56-2.65-1.53,0-1.25,1.12-3.05,3.35-5.41-3.07,1.25-6,2.22-9.07,3.19-.28,0-.56-.14-.56-.42"></path>
      <path class="cls-7" d="M1466.21,1204.61c36.99-16.23,63.08-43.57,63.08-48.57,0-1.25-.56-1.66-1.67-1.66-4.05,0-12.28,5.13-31.96,23.73-10.89,10.27-22.19,19.84-29.45,26.5ZM1451,1210.99c0-.28.14-.55.56-.69,3.77-1.25,7.4-2.63,11.03-4.02,7.11-7.08,20.1-17.35,32.37-29.14,18.84-18.04,28.05-23.86,32.8-23.86,1.95,0,2.65.83,2.65,2.77,0,5.42-28.05,35.11-66.71,51.06-3.21,3.05-5.02,5.27-5.02,6.25,0,.42.56.69,1.53.69,2.23,0,10.74-2.92,18.84-8.33,0-2.22,2.37-4.02,3.63-4.02.56,0,.84.42.84.97,0,.83-.98,1.8-3.07,3.19.14.83,2.65,1.11,6,1.11.28,0,.56.27.56.55s-.28.56-.56.56c-3.49,0-6.28-.28-7.11-1.39-8.24,5.55-16.75,8.47-19.4,8.47-1.67,0-2.65-.56-2.65-1.53,0-1.25,1.12-3.05,3.35-5.41-3.07,1.25-6,2.22-9.07,3.19-.28,0-.56-.14-.56-.42Z"></path>
      <path class="cls-7" d="M1494.54,1207.32c4.22-.5,8.05-1.37,8.05-2.11,0-.37-.26-.5-.92-.5-1.98,0-4.75,1.12-7.13,2.61M1507.47,1211.17c0,.25-.13.5-.53.62-4.62,1.62-10.3,3.36-15.18,3.36-2.64,0-3.43-.74-3.43-1.87,0-1.37,1.19-3.11,2.9-4.6-1.45.12-2.9.12-4.09.12-.26,0-.53-.25-.53-.5s.26-.5.53-.5c1.58,0,3.43,0,5.41-.25,2.9-2.12,6.6-3.86,9.24-3.86,1.19,0,1.98.62,1.98,1.49,0,1.49-5.41,2.74-10.95,3.36-1.98,1.49-3.3,3.23-3.3,4.48,0,.5.26,1.12,2.51,1.12,4.36,0,10.16-1.74,14.92-3.36.26,0,.53.13.53.37"></path>
      <path class="cls-7" d="M1494.54,1207.32c4.22-.5,8.05-1.37,8.05-2.11,0-.37-.26-.5-.92-.5-1.98,0-4.75,1.12-7.13,2.61ZM1507.47,1211.17c0,.25-.13.5-.53.62-4.62,1.62-10.3,3.36-15.18,3.36-2.64,0-3.43-.74-3.43-1.87,0-1.37,1.19-3.11,2.9-4.6-1.45.12-2.9.12-4.09.12-.26,0-.53-.25-.53-.5s.26-.5.53-.5c1.58,0,3.43,0,5.41-.25,2.9-2.12,6.6-3.86,9.24-3.86,1.19,0,1.98.62,1.98,1.49,0,1.49-5.41,2.74-10.95,3.36-1.98,1.49-3.3,3.23-3.3,4.48,0,.5.26,1.12,2.51,1.12,4.36,0,10.16-1.74,14.92-3.36.26,0,.53.13.53.37Z"></path>
      <path class="cls-7" d="M1538.1,1211.19c0,.25-.14.5-.54.62-9.18,2.74-15.26,3.48-19.18,3.48-2.7,0-3.64-.87-3.64-1.99,0-1.37,1.35-3.23,3.24-4.6l-.13-.12c-2.97,1.12-5.4,1.99-9.32,3.23-.27,0-.54-.12-.54-.37s.14-.5.54-.63c5.27-1.74,6.21-1.99,12.56-4.48,4.05-1.62,8.24-2.49,9.86-2.49,1.75,0,2.7.37,2.7,1.74,0,.75-.68,1.37-1.62,1.37-.81,0-1.48-.62-1.48-1.37,0-.25,0-.49.14-.74-6.21,0-14.72,5.73-14.72,8.21,0,.74.41,1.25,2.7,1.25,3.38,0,9.05-.5,18.91-3.49.27,0,.54.13.54.37"></path>
      <path class="cls-7" d="M1538.1,1211.19c0,.25-.14.5-.54.62-9.18,2.74-15.26,3.48-19.18,3.48-2.7,0-3.64-.87-3.64-1.99,0-1.37,1.35-3.23,3.24-4.6l-.13-.12c-2.97,1.12-5.4,1.99-9.32,3.23-.27,0-.54-.12-.54-.37s.14-.5.54-.63c5.27-1.74,6.21-1.99,12.56-4.48,4.05-1.62,8.24-2.49,9.86-2.49,1.75,0,2.7.37,2.7,1.74,0,.75-.68,1.37-1.62,1.37-.81,0-1.48-.62-1.48-1.37,0-.25,0-.49.14-.74-6.21,0-14.72,5.73-14.72,8.21,0,.74.41,1.25,2.7,1.25,3.38,0,9.05-.5,18.91-3.49.27,0,.54.13.54.37Z"></path>
      <path class="cls-7" d="M1568.73,1211.19c0,.25-.14.5-.54.62-9.18,2.74-15.26,3.48-19.18,3.48-2.7,0-3.64-.87-3.64-1.99,0-1.37,1.35-3.23,3.24-4.6l-.14-.12c-2.97,1.12-5.4,1.99-9.32,3.23-.27,0-.54-.12-.54-.37s.14-.5.54-.63c5.27-1.74,6.21-1.99,12.56-4.48,4.05-1.62,8.24-2.49,9.86-2.49,1.75,0,2.7.37,2.7,1.74,0,.75-.68,1.37-1.62,1.37-.81,0-1.48-.62-1.48-1.37,0-.25,0-.49.13-.74-6.21,0-14.72,5.73-14.72,8.21,0,.74.41,1.25,2.7,1.25,3.38,0,9.05-.5,18.91-3.49.27,0,.54.13.54.37"></path>
      <path class="cls-7" d="M1568.73,1211.19c0,.25-.14.5-.54.62-9.18,2.74-15.26,3.48-19.18,3.48-2.7,0-3.64-.87-3.64-1.99,0-1.37,1.35-3.23,3.24-4.6l-.14-.12c-2.97,1.12-5.4,1.99-9.32,3.23-.27,0-.54-.12-.54-.37s.14-.5.54-.63c5.27-1.74,6.21-1.99,12.56-4.48,4.05-1.62,8.24-2.49,9.86-2.49,1.75,0,2.7.37,2.7,1.74,0,.75-.68,1.37-1.62,1.37-.81,0-1.48-.62-1.48-1.37,0-.25,0-.49.13-.74-6.21,0-14.72,5.73-14.72,8.21,0,.74.41,1.25,2.7,1.25,3.38,0,9.05-.5,18.91-3.49.27,0,.54.13.54.37Z"></path>
      <path class="cls-7" d="M1602.03,1205.6c-.82-.37-2.18-.62-3.42-.62-9.97,0-21.17,5.32-21.17,8.05,0,.62.82.74,1.78.74,4.51,0,10.38-1.98,22.81-8.18M1607.91,1211.17c0,.25-.14.5-.55.62-6.56,2.35-9.7,3.22-11.89,3.22-1.64,0-2.59-.5-2.59-1.37,0-1.11.55-2.23,2.73-3.96-8.06,3.71-12.7,5.08-16.39,5.08-1.78,0-3.14-.5-3.14-1.74s1.78-3.1,4.64-4.71c-5.05,1.74-7.79,2.48-10.93,3.47-.27,0-.55-.12-.55-.37s.14-.49.55-.62c5.6-1.74,11.75-3.59,16.67-4.95,3.68-.99,7.79-1.86,12.16-1.86,1.64,0,3.15.25,4.65.99l.68-.37.41.62c-8.61,4.83-10.11,6.81-10.11,8.05,0,.37.55.74,1.5.74,1.64,0,4.78-.87,11.61-3.22.27,0,.55.12.55.37"></path>
      <path class="cls-7" d="M1602.03,1205.6c-.82-.37-2.18-.62-3.42-.62-9.97,0-21.17,5.32-21.17,8.05,0,.62.82.74,1.78.74,4.51,0,10.38-1.98,22.81-8.18ZM1607.91,1211.17c0,.25-.14.5-.55.62-6.56,2.35-9.7,3.22-11.89,3.22-1.64,0-2.59-.5-2.59-1.37,0-1.11.55-2.23,2.73-3.96-8.06,3.71-12.7,5.08-16.39,5.08-1.78,0-3.14-.5-3.14-1.74s1.78-3.1,4.64-4.71c-5.05,1.74-7.79,2.48-10.93,3.47-.27,0-.55-.12-.55-.37s.14-.49.55-.62c5.6-1.74,11.75-3.59,16.67-4.95,3.68-.99,7.79-1.86,12.16-1.86,1.64,0,3.15.25,4.65.99l.68-.37.41.62c-8.61,4.83-10.11,6.81-10.11,8.05,0,.37.55.74,1.5.74,1.64,0,4.78-.87,11.61-3.22.27,0,.55.12.55.37Z"></path>
      <path class="cls-4" d="M1227.89,1203.82c41.22-18.1,70.31-48.59,70.31-54.16,0-1.39-.62-1.85-1.87-1.85-4.51,0-13.68,5.73-35.62,26.46-12.14,11.45-24.73,22.13-32.82,29.56M1210.93,1210.94c0-.31.16-.62.62-.77,4.2-1.39,8.25-2.94,12.29-4.49,7.93-7.89,22.39-19.34,36.08-32.5,21-20.11,31.26-26.61,36.55-26.61,2.18,0,2.96.93,2.96,3.09,0,6.04-31.27,39.15-74.35,56.94-3.58,3.41-5.6,5.88-5.6,6.96,0,.47.62.78,1.71.78,2.49,0,11.98-3.25,21-9.29,0-2.47,2.64-4.48,4.04-4.48.63,0,.94.46.94,1.08,0,.93-1.09,2.01-3.42,3.56.16.93,2.95,1.24,6.68,1.24.31,0,.63.31.63.62s-.32.62-.63.62c-3.89,0-7-.31-7.93-1.55-9.18,6.19-18.66,9.44-21.62,9.44-1.87,0-2.95-.62-2.95-1.7,0-1.39,1.24-3.41,3.74-6.04-3.42,1.39-6.69,2.48-10.11,3.56-.31,0-.62-.16-.62-.47"></path>
      <path class="cls-7" d="M1227.89,1203.82c41.22-18.1,70.31-48.59,70.31-54.16,0-1.39-.62-1.85-1.87-1.85-4.51,0-13.68,5.73-35.62,26.46-12.14,11.45-24.73,22.13-32.82,29.56ZM1210.93,1210.94c0-.31.16-.62.62-.77,4.2-1.39,8.25-2.94,12.29-4.49,7.93-7.89,22.39-19.34,36.08-32.5,21-20.11,31.26-26.61,36.55-26.61,2.18,0,2.96.93,2.96,3.09,0,6.04-31.27,39.15-74.35,56.94-3.58,3.41-5.6,5.88-5.6,6.96,0,.47.62.78,1.71.78,2.49,0,11.98-3.25,21-9.29,0-2.47,2.64-4.48,4.04-4.48.63,0,.94.46.94,1.08,0,.93-1.09,2.01-3.42,3.56.16.93,2.95,1.24,6.68,1.24.31,0,.63.31.63.62s-.32.62-.63.62c-3.89,0-7-.31-7.93-1.55-9.18,6.19-18.66,9.44-21.62,9.44-1.87,0-2.95-.62-2.95-1.7,0-1.39,1.24-3.41,3.74-6.04-3.42,1.39-6.69,2.48-10.11,3.56-.31,0-.62-.16-.62-.47Z"></path>
      <path class="cls-7" d="M1271.09,1223.32c-34.7,16.18-62.24,38.82-62.24,45.6,0,1.23.62,1.69,1.87,1.69,2.95,0,15.72-7.24,35.32-24.8,10.42-9.24,17.89-16.02,25.05-22.49M1297.69,1212.22c0,.31-.16.62-.62.77-7.63,2.47-15.25,5.39-22.41,8.63-8.4,7.39-15.72,14.17-28.01,25.26-19.76,17.72-32.52,25.26-36.1,25.26-2.18,0-2.95-.92-2.95-3.08,0-8.01,29.25-31.58,66.44-48.37,4.36-3.7,8.87-7.7,13.84-12.02-11.36,6.63-18.98,8.94-23.03,8.94-1.87,0-2.95-.62-2.95-1.69,0-3.54,10.27-7.55,10.27-9.86,0-.77-.63-1.08-1.71-1.08-3.89,0-13.07,4.32-20.07,4.32-.31,0-.62-.31-.62-.62s.31-.62.62-.62c7.32,0,15.87-4.31,20.38-4.31,1.87,0,2.95.46,2.95,1.84,0,3.7-10.27,8.01-10.27,10.01,0,.62.63.77,1.71.77,4.2,0,13.85-3.39,28.63-12.63l.63.92c-7,5.85-12.29,10.32-17.12,14.48,6.38-2.62,13.07-5.08,19.76-7.39.31,0,.62.16.62.46"></path>
      <path class="cls-7" d="M1271.09,1223.32c-34.7,16.18-62.24,38.82-62.24,45.6,0,1.23.62,1.69,1.87,1.69,2.95,0,15.72-7.24,35.32-24.8,10.42-9.24,17.89-16.02,25.05-22.49ZM1297.69,1212.22c0,.31-.16.62-.62.77-7.63,2.47-15.25,5.39-22.41,8.63-8.4,7.39-15.72,14.17-28.01,25.26-19.76,17.72-32.52,25.26-36.1,25.26-2.18,0-2.95-.92-2.95-3.08,0-8.01,29.25-31.58,66.44-48.37,4.36-3.7,8.87-7.7,13.84-12.02-11.36,6.63-18.98,8.94-23.03,8.94-1.87,0-2.95-.62-2.95-1.69,0-3.54,10.27-7.55,10.27-9.86,0-.77-.63-1.08-1.71-1.08-3.89,0-13.07,4.32-20.07,4.32-.31,0-.62-.31-.62-.62s.31-.62.62-.62c7.32,0,15.87-4.31,20.38-4.31,1.87,0,2.95.46,2.95,1.84,0,3.7-10.27,8.01-10.27,10.01,0,.62.63.77,1.71.77,4.2,0,13.85-3.39,28.63-12.63l.63.92c-7,5.85-12.29,10.32-17.12,14.48,6.38-2.62,13.07-5.08,19.76-7.39.31,0,.62.16.62.46Z"></path>
    </g>
  </g>
  <g>
    <g>
      <g>
        <path class="cls-15" d="M4269.54,2506.22l-67.89,97.97v59h-42.41v-59l-70.22-97.97h49.98l42.14,68.37,40.35-68.37h48.06Z"></path>
        <path class="cls-15" d="M4435.05,2594.61h-98.59v40.36h112.36v28.22h-153.81v-156.97h148.85v27.79h-107.4v33.33h98.59v27.26Z"></path>
        <path class="cls-15" d="M4571.65,2667.56c-29.01,0-51.18-6.1-66.51-18.32-20.56-14.98-30.84-36.56-30.84-64.75s10.28-50.33,30.84-64.75c15.33-12.21,37.5-18.32,66.51-18.32s51.18,6.11,66.51,18.32c20.47,14.41,30.71,35.99,30.71,64.75s-10.24,49.77-30.71,64.75c-15.33,12.21-37.5,18.32-66.51,18.32ZM4611.72,2625.39c9.82-9.58,14.73-23.22,14.73-40.89s-4.94-31.22-14.8-40.84c-9.87-9.62-23.2-14.43-40-14.43s-30.2,4.79-40.21,14.38c-10.01,9.58-15.01,23.22-15.01,40.89s5,31.31,15.01,40.89c10,9.58,23.41,14.38,40.21,14.38s30.16-4.79,40.07-14.38Z"></path>
        <path class="cls-15" d="M4865.35,2663.19h-42.41l-82.89-111.5v111.5h-39.52v-156.97h44.48l80.83,109.58v-109.58h39.52v156.97Z"></path>
        <path class="cls-15" d="M4179.35,2902.22c10,0,18.13-.85,24.37-2.56,11.84-3.26,17.76-9.33,17.76-18.21,0-5.18-2.94-9.19-8.81-12.03-5.88-2.77-15.1-5.22-27.68-7.35l-21.48-3.73c-21.12-3.69-35.71-7.7-43.79-12.03-13.68-7.24-20.52-18.56-20.52-33.97,0-14.06,6.61-25.73,19.83-35.04,13.22-9.3,32.64-13.95,58.25-13.95,21.39,0,39.63,4.38,54.73,13.15,15.1,8.77,23.02,21.49,23.75,38.18h-40.76c-.74-9.44-6.06-16.15-15.97-20.13-6.61-2.63-14.83-3.94-24.65-3.94-10.93,0-19.65,1.7-26.16,5.11-6.52,3.41-9.78,8.16-9.78,14.27,0,5.61,3.21,9.8,9.64,12.57,4.13,1.85,12.94,4.01,26.44,6.5l34.97,6.5c15.33,2.84,26.9,6.64,34.7,11.39,12.12,7.38,18.18,18.07,18.18,32.05s-7.09,26.25-21.27,35.73c-14.18,9.48-34.22,14.22-60.1,14.22s-47.23-4.67-62.38-14c-15.15-9.33-22.72-22.17-22.72-38.5h40.48c1.28,7.17,3.81,12.53,7.57,16.08,6.88,6.46,18.68,9.69,35.39,9.69Z"></path>
        <path class="cls-15" d="M4441.25,2767.94v27.79h-60.72v129.17h-42.69v-129.17h-61v-27.79h164.41Z"></path>
        <path class="cls-15" d="M4586.1,2864.42v-96.48h43.1v96.48c0,16.68-3.35,29.68-10.05,38.98-12.49,17.04-36.31,25.56-71.47,25.56s-59.03-8.52-71.6-25.56c-6.7-9.3-10.05-22.29-10.05-38.98v-96.48h43.1v96.48c0,10.79,1.65,18.67,4.96,23.64,5.14,8.8,16.34,13.2,33.6,13.2s28.32-4.4,33.46-13.2c3.3-4.97,4.96-12.85,4.96-23.64Z"></path>
        <path class="cls-15" d="M4757.12,2924.91h-87.44v-156.97h87.44c12.58.14,23.04,1.28,31.4,3.41,14.23,3.62,25.75,10.26,34.56,19.91,7.07,7.81,11.89,16.26,14.46,25.35,2.57,9.09,3.86,17.75,3.86,25.98,0,20.87-5.42,38.55-16.25,53.03-14.69,19.52-37.36,29.29-68.02,29.29ZM4788.66,2807.98c-6.52-8.52-19.42-12.78-38.69-12.78h-39.11v102.45h39.11c20.01,0,33.96-7.63,41.86-22.9,4.31-8.38,6.47-18.35,6.47-29.92,0-15.97-3.21-28.26-9.64-36.85Z"></path>
        <path class="cls-15" d="M4870.04,2767.94h42.14v156.97h-42.14v-156.97Z"></path>
        <path class="cls-15" d="M5041.47,2929.27c-29.01,0-51.18-6.1-66.51-18.32-20.56-14.98-30.84-36.56-30.84-64.75s10.28-50.33,30.84-64.75c15.33-12.21,37.5-18.32,66.51-18.32s51.18,6.11,66.51,18.32c20.47,14.41,30.71,35.99,30.71,64.75s-10.24,49.77-30.71,64.75c-15.33,12.21-37.5,18.32-66.51,18.32ZM5081.54,2887.1c9.82-9.58,14.73-23.22,14.73-40.89s-4.94-31.22-14.8-40.84c-9.87-9.62-23.2-14.43-40-14.43s-30.2,4.79-40.21,14.38c-10.01,9.58-15.01,23.22-15.01,40.89s5,31.31,15.01,40.89c10,9.58,23.41,14.38,40.21,14.38s30.16-4.79,40.07-14.38Z"></path>
      </g>
      <g>
        <path class="cls-15" d="M3658.42,3096.22c6.19,4.37,22.93,4.37,48.28,4.37h269.32v-30.74h-272.95v-171.91h-50.61v163.48c0,20.29.92,31.24,5.96,34.8Z"></path>
        <path class="cls-15" d="M3773.95,2735.57l.17-.13c29.21-21.37,43.41-51.41,43.41-91.82s-14.17-71.24-43.33-91.77l-.25-.19c-21.69-17.27-53.79-26.03-95.42-26.03s-73.73,8.76-95.42,26.03l-.26.2c-29.29,20.52-43.52,50.54-43.52,91.76s14.26,70.45,43.6,91.82l.18.14c21.68,17.27,53.79,26.03,95.42,26.03s73.73-8.76,95.42-26.03ZM3591.22,2643.61c0-27.63,8.05-49.35,23.93-64.56,15.81-15.15,37.13-22.82,63.38-22.82s47.49,7.72,63.11,22.94c15.65,15.26,23.59,36.95,23.59,64.45s-7.9,49.32-23.48,64.53l-.02.02c-15.68,15.16-36.94,22.84-63.2,22.84s-47.57-7.68-63.38-22.83c-15.88-15.21-23.93-36.93-23.93-64.56Z"></path>
        <path class="cls-15" d="M3775.3,2721.14h149.2v208.14h51.53v-427.84h-51.53v64.66h-156.29M3796.28,2596.83h128.22v93.58h-123.28"></path>
        <polyline class="cls-15" points="3703.99 2547.52 3703.99 2501.43 3652.46 2501.43 3652.46 2540.81"></polyline>
      </g>
    </g>
    <g class="cls-9">
      <path class="cls-4" d="M4248.93,3131.36c2.17-4.91,4.58-9.72,7.53-14.2,4.74-6.67,9.4-13.42,13.27-20.64,9.05-16.14,15.1-34,17.01-52.44.45-4.05.42-8.15.68-12.21.06-.3.44-.25.47.05.49,4.09.8,8.21.64,12.33-.9,21.76-8.5,42.8-19.26,61.59-5.57,9.35-11.51,18.96-20.35,25.52"></path>
      <path class="cls-4" d="M4246.37,3114.55c4.76-.49,9.19-2.44,13.58-4.23,9.54-3.93,18.36-9.39,26.65-15.49-42.37-15.44-62.79,21.31-40.18,19.72h-.05M4432.98,3141.27c-29.47,0-58.66-6.85-85.72-18.35-9.4-3.95-18.62-8.3-27.72-12.88-9.96-5.01-19.84-10.26-30.26-14.27-9.47,6.79-19.52,12.86-30.44,17.02-4.67,1.79-9.48,3.72-14.58,3.6-7.09.11-10.57-6.1-7.47-12.31,2.44-5.11,7.39-8.51,12.39-10.84,12.32-5.53,26.54-3.82,38.99.43,22.17-16.26,43.81-38.81,55.47-63.93,6.32-13.74,9.88-32.37-2.2-43.93-9.41-8.79-23.49-8.26-35.15-5.05-23.19,6.26-53.71,29.15-55.84,54.64-1.01,12.54,8.21,22.34,18.49,28.03,1.01.45.74,1.25-.3.79-5.32-2.52-10.36-6-14.15-10.54-17.14-22.16,6.44-49.62,24.68-62.56,13.32-9.16,29.33-16.29,45.82-14.71,28.1,3.8,30.57,31.71,21.17,53.64-10.8,25.95-32.76,48.27-55.28,64.57,9.95,3.65,19.52,8.46,29.05,12.96,9.87,4.64,19.85,9.05,30.04,12.95,27.19,10.33,56.26,16.32,85.41,15.78,20.28-.53,40.89-3.9,59.33-12.48,5.88-2.85,11.27-6.09,16.29-10.06,4.36-3.55,8.15-7.66,12.15-11.59,2.97-3,5.89-6.04,8.77-9.12-4.24,5.22-8.67,10.42-13.04,15.58-20.31,25.44-54.9,32.44-85.91,32.62"></path>
      <path class="cls-4" d="M4328.51,3095.63c5.41-1.37,10.42-3.36,10.42-4.23,0-.37-.26-.5-.92-.5-2.51,0-6.6,2.24-9.5,4.73M4343.82,3097.37c0,.25-.13.5-.53.62-4.62,1.62-10.29,3.36-15.18,3.36-2.64,0-3.43-.74-3.43-1.87,0-.62.26-1.24.79-1.99l-1.98.5c-.26,0-.53-.12-.53-.37s.13-.5.53-.63l3.16-.87c4.36-3.99,8.71-6.22,11.48-6.22,1.19,0,1.98.62,1.98,1.37,0,1.86-5.94,3.85-13.07,5.72-.79.75-1.19,1.62-1.19,2.24,0,.5.26,1.12,2.51,1.12,4.36,0,10.16-1.74,14.91-3.36.26,0,.53.13.53.37"></path>
      <path class="cls-2" d="M4328.51,3095.63c5.41-1.37,10.42-3.36,10.42-4.23,0-.37-.26-.5-.92-.5-2.51,0-6.6,2.24-9.5,4.73ZM4343.82,3097.37c0,.25-.13.5-.53.62-4.62,1.62-10.29,3.36-15.18,3.36-2.64,0-3.43-.74-3.43-1.87,0-.62.26-1.24.79-1.99l-1.98.5c-.26,0-.53-.12-.53-.37s.13-.5.53-.63l3.16-.87c4.36-3.99,8.71-6.22,11.48-6.22,1.19,0,1.98.62,1.98,1.37,0,1.86-5.94,3.85-13.07,5.72-.79.75-1.19,1.62-1.19,2.24,0,.5.26,1.12,2.51,1.12,4.36,0,10.16-1.74,14.91-3.36.26,0,.53.13.53.37Z"></path>
      <path class="cls-4" d="M4359.55,3090.81c36.99-16.23,63.08-43.57,63.08-48.57,0-1.25-.56-1.66-1.67-1.66-4.05,0-12.28,5.13-31.96,23.73-10.89,10.27-22.19,19.84-29.45,26.5M4344.34,3097.19c0-.28.14-.55.56-.69,3.77-1.25,7.4-2.63,11.03-4.02,7.11-7.08,20.1-17.35,32.37-29.14,18.84-18.04,28.05-23.86,32.8-23.86,1.95,0,2.65.83,2.65,2.77,0,5.42-28.05,35.11-66.71,51.06-3.21,3.05-5.02,5.27-5.02,6.25,0,.42.56.69,1.53.69,2.23,0,10.74-2.92,18.84-8.33,0-2.22,2.37-4.02,3.63-4.02.56,0,.84.42.84.97,0,.83-.98,1.8-3.07,3.19.14.83,2.65,1.11,6,1.11.28,0,.56.27.56.55s-.28.56-.56.56c-3.49,0-6.28-.28-7.11-1.39-8.24,5.55-16.75,8.47-19.4,8.47-1.67,0-2.65-.56-2.65-1.53,0-1.25,1.12-3.05,3.35-5.41-3.07,1.25-6,2.22-9.07,3.19-.28,0-.56-.14-.56-.42"></path>
      <path class="cls-2" d="M4359.55,3090.81c36.99-16.23,63.08-43.57,63.08-48.57,0-1.25-.56-1.66-1.67-1.66-4.05,0-12.28,5.13-31.96,23.73-10.89,10.27-22.19,19.84-29.45,26.5ZM4344.34,3097.19c0-.28.14-.55.56-.69,3.77-1.25,7.4-2.63,11.03-4.02,7.11-7.08,20.1-17.35,32.37-29.14,18.84-18.04,28.05-23.86,32.8-23.86,1.95,0,2.65.83,2.65,2.77,0,5.42-28.05,35.11-66.71,51.06-3.21,3.05-5.02,5.27-5.02,6.25,0,.42.56.69,1.53.69,2.23,0,10.74-2.92,18.84-8.33,0-2.22,2.37-4.02,3.63-4.02.56,0,.84.42.84.97,0,.83-.98,1.8-3.07,3.19.14.83,2.65,1.11,6,1.11.28,0,.56.27.56.55s-.28.56-.56.56c-3.49,0-6.28-.28-7.11-1.39-8.24,5.55-16.75,8.47-19.4,8.47-1.67,0-2.65-.56-2.65-1.53,0-1.25,1.12-3.05,3.35-5.41-3.07,1.25-6,2.22-9.07,3.19-.28,0-.56-.14-.56-.42Z"></path>
      <path class="cls-4" d="M4387.88,3093.51c4.22-.5,8.05-1.37,8.05-2.11,0-.37-.26-.5-.92-.5-1.98,0-4.75,1.12-7.13,2.61M4400.81,3097.37c0,.25-.13.5-.53.62-4.62,1.62-10.3,3.36-15.18,3.36-2.64,0-3.43-.74-3.43-1.87,0-1.37,1.19-3.11,2.9-4.6-1.45.12-2.9.12-4.09.12-.26,0-.53-.25-.53-.5s.26-.5.53-.5c1.58,0,3.43,0,5.41-.25,2.9-2.12,6.6-3.86,9.24-3.86,1.19,0,1.98.62,1.98,1.49,0,1.49-5.41,2.74-10.95,3.36-1.98,1.49-3.3,3.23-3.3,4.48,0,.5.26,1.12,2.51,1.12,4.36,0,10.16-1.74,14.92-3.36.26,0,.53.13.53.37"></path>
      <path class="cls-2" d="M4387.88,3093.51c4.22-.5,8.05-1.37,8.05-2.11,0-.37-.26-.5-.92-.5-1.98,0-4.75,1.12-7.13,2.61ZM4400.81,3097.37c0,.25-.13.5-.53.62-4.62,1.62-10.3,3.36-15.18,3.36-2.64,0-3.43-.74-3.43-1.87,0-1.37,1.19-3.11,2.9-4.6-1.45.12-2.9.12-4.09.12-.26,0-.53-.25-.53-.5s.26-.5.53-.5c1.58,0,3.43,0,5.41-.25,2.9-2.12,6.6-3.86,9.24-3.86,1.19,0,1.98.62,1.98,1.49,0,1.49-5.41,2.74-10.95,3.36-1.98,1.49-3.3,3.23-3.3,4.48,0,.5.26,1.12,2.51,1.12,4.36,0,10.16-1.74,14.92-3.36.26,0,.53.13.53.37Z"></path>
      <path class="cls-4" d="M4431.44,3097.39c0,.25-.14.5-.54.62-9.18,2.74-15.26,3.48-19.18,3.48-2.7,0-3.64-.87-3.64-1.99,0-1.37,1.35-3.23,3.24-4.6l-.13-.12c-2.97,1.12-5.4,1.99-9.32,3.23-.27,0-.54-.12-.54-.37s.14-.5.54-.63c5.27-1.74,6.21-1.99,12.56-4.48,4.05-1.62,8.24-2.49,9.86-2.49,1.75,0,2.7.37,2.7,1.74,0,.75-.68,1.37-1.62,1.37-.81,0-1.48-.62-1.48-1.37,0-.25,0-.49.14-.74-6.21,0-14.72,5.73-14.72,8.21,0,.74.41,1.25,2.7,1.25,3.38,0,9.05-.5,18.91-3.49.27,0,.54.13.54.37"></path>
      <path class="cls-2" d="M4431.44,3097.39c0,.25-.14.5-.54.62-9.18,2.74-15.26,3.48-19.18,3.48-2.7,0-3.64-.87-3.64-1.99,0-1.37,1.35-3.23,3.24-4.6l-.13-.12c-2.97,1.12-5.4,1.99-9.32,3.23-.27,0-.54-.12-.54-.37s.14-.5.54-.63c5.27-1.74,6.21-1.99,12.56-4.48,4.05-1.62,8.24-2.49,9.86-2.49,1.75,0,2.7.37,2.7,1.74,0,.75-.68,1.37-1.62,1.37-.81,0-1.48-.62-1.48-1.37,0-.25,0-.49.14-.74-6.21,0-14.72,5.73-14.72,8.21,0,.74.41,1.25,2.7,1.25,3.38,0,9.05-.5,18.91-3.49.27,0,.54.13.54.37Z"></path>
      <path class="cls-4" d="M4462.07,3097.39c0,.25-.14.5-.54.62-9.18,2.74-15.26,3.48-19.18,3.48-2.7,0-3.64-.87-3.64-1.99,0-1.37,1.35-3.23,3.24-4.6l-.14-.12c-2.97,1.12-5.4,1.99-9.32,3.23-.27,0-.54-.12-.54-.37s.14-.5.54-.63c5.27-1.74,6.21-1.99,12.56-4.48,4.05-1.62,8.24-2.49,9.86-2.49,1.75,0,2.7.37,2.7,1.74,0,.75-.68,1.37-1.62,1.37-.81,0-1.48-.62-1.48-1.37,0-.25,0-.49.13-.74-6.21,0-14.72,5.73-14.72,8.21,0,.74.41,1.25,2.7,1.25,3.38,0,9.05-.5,18.91-3.49.27,0,.54.13.54.37"></path>
      <path class="cls-2" d="M4462.07,3097.39c0,.25-.14.5-.54.62-9.18,2.74-15.26,3.48-19.18,3.48-2.7,0-3.64-.87-3.64-1.99,0-1.37,1.35-3.23,3.24-4.6l-.14-.12c-2.97,1.12-5.4,1.99-9.32,3.23-.27,0-.54-.12-.54-.37s.14-.5.54-.63c5.27-1.74,6.21-1.99,12.56-4.48,4.05-1.62,8.24-2.49,9.86-2.49,1.75,0,2.7.37,2.7,1.74,0,.75-.68,1.37-1.62,1.37-.81,0-1.48-.62-1.48-1.37,0-.25,0-.49.13-.74-6.21,0-14.72,5.73-14.72,8.21,0,.74.41,1.25,2.7,1.25,3.38,0,9.05-.5,18.91-3.49.27,0,.54.13.54.37Z"></path>
      <path class="cls-4" d="M4495.37,3091.8c-.82-.37-2.18-.62-3.42-.62-9.97,0-21.17,5.32-21.17,8.05,0,.62.82.74,1.78.74,4.51,0,10.38-1.98,22.81-8.18M4501.25,3097.37c0,.25-.14.5-.55.62-6.56,2.35-9.7,3.22-11.89,3.22-1.64,0-2.59-.5-2.59-1.37,0-1.11.55-2.23,2.73-3.96-8.06,3.71-12.7,5.08-16.39,5.08-1.78,0-3.14-.5-3.14-1.74s1.78-3.1,4.64-4.71c-5.05,1.74-7.79,2.48-10.93,3.47-.27,0-.55-.12-.55-.37s.14-.49.55-.62c5.6-1.74,11.75-3.59,16.67-4.95,3.68-.99,7.79-1.86,12.16-1.86,1.64,0,3.15.25,4.65.99l.68-.37.41.62c-8.61,4.83-10.11,6.81-10.11,8.05,0,.37.55.74,1.5.74,1.64,0,4.78-.87,11.61-3.22.27,0,.55.12.55.37"></path>
      <path class="cls-2" d="M4495.37,3091.8c-.82-.37-2.18-.62-3.42-.62-9.97,0-21.17,5.32-21.17,8.05,0,.62.82.74,1.78.74,4.51,0,10.38-1.98,22.81-8.18ZM4501.25,3097.37c0,.25-.14.5-.55.62-6.56,2.35-9.7,3.22-11.89,3.22-1.64,0-2.59-.5-2.59-1.37,0-1.11.55-2.23,2.73-3.96-8.06,3.71-12.7,5.08-16.39,5.08-1.78,0-3.14-.5-3.14-1.74s1.78-3.1,4.64-4.71c-5.05,1.74-7.79,2.48-10.93,3.47-.27,0-.55-.12-.55-.37s.14-.49.55-.62c5.6-1.74,11.75-3.59,16.67-4.95,3.68-.99,7.79-1.86,12.16-1.86,1.64,0,3.15.25,4.65.99l.68-.37.41.62c-8.61,4.83-10.11,6.81-10.11,8.05,0,.37.55.74,1.5.74,1.64,0,4.78-.87,11.61-3.22.27,0,.55.12.55.37Z"></path>
      <path class="cls-4" d="M4121.23,3090.02c41.22-18.1,70.31-48.59,70.31-54.16,0-1.39-.62-1.85-1.87-1.85-4.51,0-13.68,5.73-35.62,26.46-12.14,11.45-24.73,22.13-32.82,29.56M4104.27,3097.14c0-.31.16-.62.62-.77,4.2-1.39,8.25-2.94,12.29-4.49,7.93-7.89,22.39-19.34,36.08-32.5,21-20.11,31.26-26.61,36.55-26.61,2.18,0,2.96.93,2.96,3.09,0,6.04-31.27,39.15-74.35,56.94-3.58,3.41-5.6,5.88-5.6,6.96,0,.47.62.78,1.71.78,2.49,0,11.98-3.25,21-9.29,0-2.47,2.64-4.48,4.04-4.48.63,0,.94.46.94,1.08,0,.93-1.09,2.01-3.42,3.56.16.93,2.95,1.24,6.68,1.24.31,0,.63.31.63.62s-.32.62-.63.62c-3.89,0-7-.31-7.93-1.55-9.18,6.19-18.66,9.44-21.62,9.44-1.87,0-2.95-.62-2.95-1.7,0-1.39,1.24-3.41,3.74-6.04-3.42,1.39-6.69,2.48-10.11,3.56-.31,0-.62-.16-.62-.47"></path>
      <path class="cls-2" d="M4121.23,3090.02c41.22-18.1,70.31-48.59,70.31-54.16,0-1.39-.62-1.85-1.87-1.85-4.51,0-13.68,5.73-35.62,26.46-12.14,11.45-24.73,22.13-32.82,29.56ZM4104.27,3097.14c0-.31.16-.62.62-.77,4.2-1.39,8.25-2.94,12.29-4.49,7.93-7.89,22.39-19.34,36.08-32.5,21-20.11,31.26-26.61,36.55-26.61,2.18,0,2.96.93,2.96,3.09,0,6.04-31.27,39.15-74.35,56.94-3.58,3.41-5.6,5.88-5.6,6.96,0,.47.62.78,1.71.78,2.49,0,11.98-3.25,21-9.29,0-2.47,2.64-4.48,4.04-4.48.63,0,.94.46.94,1.08,0,.93-1.09,2.01-3.42,3.56.16.93,2.95,1.24,6.68,1.24.31,0,.63.31.63.62s-.32.62-.63.62c-3.89,0-7-.31-7.93-1.55-9.18,6.19-18.66,9.44-21.62,9.44-1.87,0-2.95-.62-2.95-1.7,0-1.39,1.24-3.41,3.74-6.04-3.42,1.39-6.69,2.48-10.11,3.56-.31,0-.62-.16-.62-.47Z"></path>
      <path class="cls-4" d="M4164.42,3109.51c-34.7,16.18-62.24,38.82-62.24,45.6,0,1.23.62,1.69,1.87,1.69,2.95,0,15.72-7.24,35.32-24.8,10.42-9.24,17.89-16.02,25.05-22.49M4191.03,3098.42c0,.31-.16.62-.62.77-7.63,2.47-15.25,5.39-22.41,8.63-8.4,7.39-15.72,14.17-28.01,25.26-19.76,17.72-32.52,25.26-36.1,25.26-2.18,0-2.95-.92-2.95-3.08,0-8.01,29.25-31.58,66.44-48.37,4.36-3.7,8.87-7.7,13.84-12.02-11.36,6.63-18.98,8.94-23.03,8.94-1.87,0-2.95-.62-2.95-1.69,0-3.54,10.27-7.55,10.27-9.86,0-.77-.63-1.08-1.71-1.08-3.89,0-13.07,4.32-20.07,4.32-.31,0-.62-.31-.62-.62s.31-.62.62-.62c7.32,0,15.87-4.31,20.38-4.31,1.87,0,2.95.46,2.95,1.84,0,3.7-10.27,8.01-10.27,10.01,0,.62.63.77,1.71.77,4.2,0,13.85-3.39,28.63-12.63l.63.92c-7,5.85-12.29,10.32-17.12,14.48,6.38-2.62,13.07-5.08,19.76-7.39.31,0,.62.16.62.46"></path>
      <path class="cls-2" d="M4164.42,3109.51c-34.7,16.18-62.24,38.82-62.24,45.6,0,1.23.62,1.69,1.87,1.69,2.95,0,15.72-7.24,35.32-24.8,10.42-9.24,17.89-16.02,25.05-22.49ZM4191.03,3098.42c0,.31-.16.62-.62.77-7.63,2.47-15.25,5.39-22.41,8.63-8.4,7.39-15.72,14.17-28.01,25.26-19.76,17.72-32.52,25.26-36.1,25.26-2.18,0-2.95-.92-2.95-3.08,0-8.01,29.25-31.58,66.44-48.37,4.36-3.7,8.87-7.7,13.84-12.02-11.36,6.63-18.98,8.94-23.03,8.94-1.87,0-2.95-.62-2.95-1.69,0-3.54,10.27-7.55,10.27-9.86,0-.77-.63-1.08-1.71-1.08-3.89,0-13.07,4.32-20.07,4.32-.31,0-.62-.31-.62-.62s.31-.62.62-.62c7.32,0,15.87-4.31,20.38-4.31,1.87,0,2.95.46,2.95,1.84,0,3.7-10.27,8.01-10.27,10.01,0,.62.63.77,1.71.77,4.2,0,13.85-3.39,28.63-12.63l.63.92c-7,5.85-12.29,10.32-17.12,14.48,6.38-2.62,13.07-5.08,19.76-7.39.31,0,.62.16.62.46Z"></path>
    </g>
  </g>
  <g>
    <g>
      <g>
        <path class="cls-14" d="M4269.54,620.03l-67.89,97.97v59h-42.41v-59l-70.22-97.97h49.98l42.14,68.37,40.35-68.37h48.06Z"></path>
        <path class="cls-14" d="M4435.05,708.41h-98.59v40.36h112.36v28.22h-153.81v-156.97h148.85v27.79h-107.4v33.33h98.59v27.26Z"></path>
        <path class="cls-14" d="M4571.65,781.36c-29.01,0-51.18-6.1-66.51-18.32-20.56-14.98-30.84-36.56-30.84-64.75s10.28-50.33,30.84-64.75c15.33-12.21,37.5-18.32,66.51-18.32s51.18,6.11,66.51,18.32c20.47,14.41,30.71,35.99,30.71,64.75s-10.24,49.77-30.71,64.75c-15.33,12.21-37.5,18.32-66.51,18.32ZM4611.72,739.19c9.82-9.58,14.73-23.22,14.73-40.89s-4.94-31.22-14.8-40.84c-9.87-9.62-23.2-14.43-40-14.43s-30.2,4.79-40.21,14.38c-10.01,9.58-15.01,23.22-15.01,40.89s5,31.31,15.01,40.89c10,9.58,23.41,14.38,40.21,14.38s30.16-4.79,40.07-14.38Z"></path>
        <path class="cls-14" d="M4865.35,777h-42.41l-82.89-111.5v111.5h-39.52v-156.97h44.48l80.83,109.58v-109.58h39.52v156.97Z"></path>
        <path class="cls-14" d="M4179.35,1016.03c10,0,18.13-.85,24.37-2.56,11.84-3.26,17.76-9.33,17.76-18.21,0-5.18-2.94-9.19-8.81-12.03-5.88-2.77-15.1-5.22-27.68-7.35l-21.48-3.73c-21.12-3.69-35.71-7.7-43.79-12.03-13.68-7.24-20.52-18.56-20.52-33.97,0-14.06,6.61-25.73,19.83-35.04,13.22-9.3,32.64-13.95,58.25-13.95,21.39,0,39.63,4.38,54.73,13.15,15.1,8.77,23.02,21.49,23.75,38.18h-40.76c-.74-9.44-6.06-16.15-15.97-20.13-6.61-2.63-14.83-3.94-24.65-3.94-10.93,0-19.65,1.7-26.16,5.11-6.52,3.41-9.78,8.16-9.78,14.27,0,5.61,3.21,9.8,9.64,12.57,4.13,1.85,12.94,4.01,26.44,6.5l34.97,6.5c15.33,2.84,26.9,6.64,34.7,11.39,12.12,7.38,18.18,18.07,18.18,32.05s-7.09,26.25-21.27,35.73c-14.18,9.48-34.22,14.22-60.1,14.22s-47.23-4.67-62.38-14c-15.15-9.33-22.72-22.17-22.72-38.5h40.48c1.28,7.17,3.81,12.53,7.57,16.08,6.88,6.46,18.68,9.69,35.39,9.69Z"></path>
        <path class="cls-14" d="M4441.25,881.74v27.79h-60.72v129.17h-42.69v-129.17h-61v-27.79h164.41Z"></path>
        <path class="cls-14" d="M4586.1,978.22v-96.48h43.1v96.48c0,16.68-3.35,29.68-10.05,38.98-12.49,17.04-36.31,25.56-71.47,25.56s-59.03-8.52-71.6-25.56c-6.7-9.3-10.05-22.29-10.05-38.98v-96.48h43.1v96.48c0,10.79,1.65,18.67,4.96,23.64,5.14,8.8,16.34,13.2,33.6,13.2s28.32-4.4,33.46-13.2c3.3-4.97,4.96-12.85,4.96-23.64Z"></path>
        <path class="cls-14" d="M4757.12,1038.71h-87.44v-156.97h87.44c12.58.14,23.04,1.28,31.4,3.41,14.23,3.62,25.75,10.26,34.56,19.91,7.07,7.81,11.89,16.26,14.46,25.35,2.57,9.09,3.86,17.75,3.86,25.98,0,20.87-5.42,38.55-16.25,53.03-14.69,19.52-37.36,29.29-68.02,29.29ZM4788.66,921.78c-6.52-8.52-19.42-12.78-38.69-12.78h-39.11v102.45h39.11c20.01,0,33.96-7.63,41.86-22.9,4.31-8.38,6.47-18.35,6.47-29.92,0-15.97-3.21-28.26-9.64-36.85Z"></path>
        <path class="cls-14" d="M4870.04,881.74h42.14v156.97h-42.14v-156.97Z"></path>
        <path class="cls-14" d="M5041.47,1043.08c-29.01,0-51.18-6.1-66.51-18.32-20.56-14.98-30.84-36.56-30.84-64.75s10.28-50.33,30.84-64.75c15.33-12.21,37.5-18.32,66.51-18.32s51.18,6.11,66.51,18.32c20.47,14.41,30.71,35.99,30.71,64.75s-10.24,49.77-30.71,64.75c-15.33,12.21-37.5,18.32-66.51,18.32ZM5081.54,1000.91c9.82-9.58,14.73-23.22,14.73-40.89s-4.94-31.22-14.8-40.84c-9.87-9.62-23.2-14.43-40-14.43s-30.2,4.79-40.21,14.38c-10.01,9.58-15.01,23.22-15.01,40.89s5,31.31,15.01,40.89c10,9.58,23.41,14.38,40.21,14.38s30.16-4.79,40.07-14.38Z"></path>
      </g>
      <g>
        <path class="cls-14" d="M3658.42,1210.02c6.19,4.37,22.93,4.37,48.28,4.37h269.32v-30.74h-272.95v-171.91h-50.61v163.48c0,20.29.92,31.24,5.96,34.8Z"></path>
        <path class="cls-14" d="M3773.95,849.37l.17-.13c29.21-21.37,43.41-51.41,43.41-91.82s-14.17-71.24-43.33-91.77l-.25-.19c-21.69-17.27-53.79-26.03-95.42-26.03s-73.73,8.76-95.42,26.03l-.26.2c-29.29,20.52-43.52,50.54-43.52,91.76s14.26,70.45,43.6,91.82l.18.14c21.68,17.27,53.79,26.03,95.42,26.03s73.73-8.76,95.42-26.03ZM3591.22,757.42c0-27.63,8.05-49.35,23.93-64.56,15.81-15.15,37.13-22.82,63.38-22.82s47.49,7.72,63.11,22.94c15.65,15.26,23.59,36.95,23.59,64.45s-7.9,49.32-23.48,64.53l-.02.02c-15.68,15.16-36.94,22.84-63.2,22.84s-47.57-7.68-63.38-22.83c-15.88-15.21-23.93-36.93-23.93-64.56Z"></path>
        <path class="cls-14" d="M3775.3,834.94h149.2v208.14h51.53v-427.84h-51.53v64.66h-156.29M3796.28,710.63h128.22v93.58h-123.28"></path>
        <polyline class="cls-14" points="3703.99 661.32 3703.99 615.23 3652.46 615.23 3652.46 654.62"></polyline>
      </g>
    </g>
    <g class="cls-12">
      <path class="cls-14" d="M4248.93,1245.16c2.17-4.91,4.58-9.72,7.53-14.2,4.74-6.67,9.4-13.42,13.27-20.64,9.05-16.14,15.1-34,17.01-52.44.45-4.05.42-8.15.68-12.21.06-.3.44-.25.47.05.49,4.09.8,8.21.64,12.33-.9,21.76-8.5,42.8-19.26,61.59-5.57,9.35-11.51,18.96-20.35,25.52"></path>
      <path class="cls-14" d="M4246.37,1228.35c4.76-.49,9.19-2.44,13.58-4.23,9.54-3.93,18.36-9.39,26.65-15.49-42.37-15.44-62.79,21.31-40.18,19.72h-.05M4432.98,1255.07c-29.47,0-58.66-6.85-85.72-18.35-9.4-3.95-18.62-8.3-27.72-12.88-9.96-5.01-19.84-10.26-30.26-14.27-9.47,6.79-19.52,12.86-30.44,17.02-4.67,1.79-9.48,3.72-14.58,3.6-7.09.11-10.57-6.1-7.47-12.31,2.44-5.11,7.39-8.51,12.39-10.84,12.32-5.53,26.54-3.82,38.99.43,22.17-16.26,43.81-38.81,55.47-63.93,6.32-13.74,9.88-32.37-2.2-43.93-9.41-8.79-23.49-8.26-35.15-5.05-23.19,6.26-53.71,29.15-55.84,54.64-1.01,12.54,8.21,22.34,18.49,28.03,1.01.45.74,1.25-.3.79-5.32-2.52-10.36-6-14.15-10.54-17.14-22.16,6.44-49.62,24.68-62.56,13.32-9.16,29.33-16.29,45.82-14.71,28.1,3.8,30.57,31.71,21.17,53.64-10.8,25.95-32.76,48.27-55.28,64.57,9.95,3.65,19.52,8.46,29.05,12.96,9.87,4.64,19.85,9.05,30.04,12.95,27.19,10.33,56.26,16.32,85.41,15.78,20.28-.53,40.89-3.9,59.33-12.48,5.88-2.85,11.27-6.09,16.29-10.06,4.36-3.55,8.15-7.66,12.15-11.59,2.97-3,5.89-6.04,8.77-9.12-4.24,5.22-8.67,10.42-13.04,15.58-20.31,25.44-54.9,32.44-85.91,32.62"></path>
      <path class="cls-1" d="M4328.51,1209.43c5.41-1.37,10.42-3.36,10.42-4.23,0-.37-.26-.5-.92-.5-2.51,0-6.6,2.24-9.5,4.73M4343.82,1211.17c0,.25-.13.5-.53.62-4.62,1.62-10.29,3.36-15.18,3.36-2.64,0-3.43-.74-3.43-1.87,0-.62.26-1.24.79-1.99l-1.98.5c-.26,0-.53-.12-.53-.37s.13-.5.53-.63l3.16-.87c4.36-3.99,8.71-6.22,11.48-6.22,1.19,0,1.98.62,1.98,1.37,0,1.86-5.94,3.85-13.07,5.72-.79.75-1.19,1.62-1.19,2.24,0,.5.26,1.12,2.51,1.12,4.36,0,10.16-1.74,14.91-3.36.26,0,.53.13.53.37"></path>
      <path class="cls-8" d="M4328.51,1209.43c5.41-1.37,10.42-3.36,10.42-4.23,0-.37-.26-.5-.92-.5-2.51,0-6.6,2.24-9.5,4.73ZM4343.82,1211.17c0,.25-.13.5-.53.62-4.62,1.62-10.29,3.36-15.18,3.36-2.64,0-3.43-.74-3.43-1.87,0-.62.26-1.24.79-1.99l-1.98.5c-.26,0-.53-.12-.53-.37s.13-.5.53-.63l3.16-.87c4.36-3.99,8.71-6.22,11.48-6.22,1.19,0,1.98.62,1.98,1.37,0,1.86-5.94,3.85-13.07,5.72-.79.75-1.19,1.62-1.19,2.24,0,.5.26,1.12,2.51,1.12,4.36,0,10.16-1.74,14.91-3.36.26,0,.53.13.53.37Z"></path>
      <path class="cls-1" d="M4359.55,1204.61c36.99-16.23,63.08-43.57,63.08-48.57,0-1.25-.56-1.66-1.67-1.66-4.05,0-12.28,5.13-31.96,23.73-10.89,10.27-22.19,19.84-29.45,26.5M4344.34,1210.99c0-.28.14-.55.56-.69,3.77-1.25,7.4-2.63,11.03-4.02,7.11-7.08,20.1-17.35,32.37-29.14,18.84-18.04,28.05-23.86,32.8-23.86,1.95,0,2.65.83,2.65,2.77,0,5.42-28.05,35.11-66.71,51.06-3.21,3.05-5.02,5.27-5.02,6.25,0,.42.56.69,1.53.69,2.23,0,10.74-2.92,18.84-8.33,0-2.22,2.37-4.02,3.63-4.02.56,0,.84.42.84.97,0,.83-.98,1.8-3.07,3.19.14.83,2.65,1.11,6,1.11.28,0,.56.27.56.55s-.28.56-.56.56c-3.49,0-6.28-.28-7.11-1.39-8.24,5.55-16.75,8.47-19.4,8.47-1.67,0-2.65-.56-2.65-1.53,0-1.25,1.12-3.05,3.35-5.41-3.07,1.25-6,2.22-9.07,3.19-.28,0-.56-.14-.56-.42"></path>
      <path class="cls-8" d="M4359.55,1204.61c36.99-16.23,63.08-43.57,63.08-48.57,0-1.25-.56-1.66-1.67-1.66-4.05,0-12.28,5.13-31.96,23.73-10.89,10.27-22.19,19.84-29.45,26.5ZM4344.34,1210.99c0-.28.14-.55.56-.69,3.77-1.25,7.4-2.63,11.03-4.02,7.11-7.08,20.1-17.35,32.37-29.14,18.84-18.04,28.05-23.86,32.8-23.86,1.95,0,2.65.83,2.65,2.77,0,5.42-28.05,35.11-66.71,51.06-3.21,3.05-5.02,5.27-5.02,6.25,0,.42.56.69,1.53.69,2.23,0,10.74-2.92,18.84-8.33,0-2.22,2.37-4.02,3.63-4.02.56,0,.84.42.84.97,0,.83-.98,1.8-3.07,3.19.14.83,2.65,1.11,6,1.11.28,0,.56.27.56.55s-.28.56-.56.56c-3.49,0-6.28-.28-7.11-1.39-8.24,5.55-16.75,8.47-19.4,8.47-1.67,0-2.65-.56-2.65-1.53,0-1.25,1.12-3.05,3.35-5.41-3.07,1.25-6,2.22-9.07,3.19-.28,0-.56-.14-.56-.42Z"></path>
      <path class="cls-1" d="M4387.88,1207.32c4.22-.5,8.05-1.37,8.05-2.11,0-.37-.26-.5-.92-.5-1.98,0-4.75,1.12-7.13,2.61M4400.81,1211.17c0,.25-.13.5-.53.62-4.62,1.62-10.3,3.36-15.18,3.36-2.64,0-3.43-.74-3.43-1.87,0-1.37,1.19-3.11,2.9-4.6-1.45.12-2.9.12-4.09.12-.26,0-.53-.25-.53-.5s.26-.5.53-.5c1.58,0,3.43,0,5.41-.25,2.9-2.12,6.6-3.86,9.24-3.86,1.19,0,1.98.62,1.98,1.49,0,1.49-5.41,2.74-10.95,3.36-1.98,1.49-3.3,3.23-3.3,4.48,0,.5.26,1.12,2.51,1.12,4.36,0,10.16-1.74,14.92-3.36.26,0,.53.13.53.37"></path>
      <path class="cls-8" d="M4387.88,1207.32c4.22-.5,8.05-1.37,8.05-2.11,0-.37-.26-.5-.92-.5-1.98,0-4.75,1.12-7.13,2.61ZM4400.81,1211.17c0,.25-.13.5-.53.62-4.62,1.62-10.3,3.36-15.18,3.36-2.64,0-3.43-.74-3.43-1.87,0-1.37,1.19-3.11,2.9-4.6-1.45.12-2.9.12-4.09.12-.26,0-.53-.25-.53-.5s.26-.5.53-.5c1.58,0,3.43,0,5.41-.25,2.9-2.12,6.6-3.86,9.24-3.86,1.19,0,1.98.62,1.98,1.49,0,1.49-5.41,2.74-10.95,3.36-1.98,1.49-3.3,3.23-3.3,4.48,0,.5.26,1.12,2.51,1.12,4.36,0,10.16-1.74,14.92-3.36.26,0,.53.13.53.37Z"></path>
      <path class="cls-1" d="M4431.44,1211.19c0,.25-.14.5-.54.62-9.18,2.74-15.26,3.48-19.18,3.48-2.7,0-3.64-.87-3.64-1.99,0-1.37,1.35-3.23,3.24-4.6l-.13-.12c-2.97,1.12-5.4,1.99-9.32,3.23-.27,0-.54-.12-.54-.37s.14-.5.54-.63c5.27-1.74,6.21-1.99,12.56-4.48,4.05-1.62,8.24-2.49,9.86-2.49,1.75,0,2.7.37,2.7,1.74,0,.75-.68,1.37-1.62,1.37-.81,0-1.48-.62-1.48-1.37,0-.25,0-.49.14-.74-6.21,0-14.72,5.73-14.72,8.21,0,.74.41,1.25,2.7,1.25,3.38,0,9.05-.5,18.91-3.49.27,0,.54.13.54.37"></path>
      <path class="cls-8" d="M4431.44,1211.19c0,.25-.14.5-.54.62-9.18,2.74-15.26,3.48-19.18,3.48-2.7,0-3.64-.87-3.64-1.99,0-1.37,1.35-3.23,3.24-4.6l-.13-.12c-2.97,1.12-5.4,1.99-9.32,3.23-.27,0-.54-.12-.54-.37s.14-.5.54-.63c5.27-1.74,6.21-1.99,12.56-4.48,4.05-1.62,8.24-2.49,9.86-2.49,1.75,0,2.7.37,2.7,1.74,0,.75-.68,1.37-1.62,1.37-.81,0-1.48-.62-1.48-1.37,0-.25,0-.49.14-.74-6.21,0-14.72,5.73-14.72,8.21,0,.74.41,1.25,2.7,1.25,3.38,0,9.05-.5,18.91-3.49.27,0,.54.13.54.37Z"></path>
      <path class="cls-1" d="M4462.07,1211.19c0,.25-.14.5-.54.62-9.18,2.74-15.26,3.48-19.18,3.48-2.7,0-3.64-.87-3.64-1.99,0-1.37,1.35-3.23,3.24-4.6l-.14-.12c-2.97,1.12-5.4,1.99-9.32,3.23-.27,0-.54-.12-.54-.37s.14-.5.54-.63c5.27-1.74,6.21-1.99,12.56-4.48,4.05-1.62,8.24-2.49,9.86-2.49,1.75,0,2.7.37,2.7,1.74,0,.75-.68,1.37-1.62,1.37-.81,0-1.48-.62-1.48-1.37,0-.25,0-.49.13-.74-6.21,0-14.72,5.73-14.72,8.21,0,.74.41,1.25,2.7,1.25,3.38,0,9.05-.5,18.91-3.49.27,0,.54.13.54.37"></path>
      <path class="cls-8" d="M4462.07,1211.19c0,.25-.14.5-.54.62-9.18,2.74-15.26,3.48-19.18,3.48-2.7,0-3.64-.87-3.64-1.99,0-1.37,1.35-3.23,3.24-4.6l-.14-.12c-2.97,1.12-5.4,1.99-9.32,3.23-.27,0-.54-.12-.54-.37s.14-.5.54-.63c5.27-1.74,6.21-1.99,12.56-4.48,4.05-1.62,8.24-2.49,9.86-2.49,1.75,0,2.7.37,2.7,1.74,0,.75-.68,1.37-1.62,1.37-.81,0-1.48-.62-1.48-1.37,0-.25,0-.49.13-.74-6.21,0-14.72,5.73-14.72,8.21,0,.74.41,1.25,2.7,1.25,3.38,0,9.05-.5,18.91-3.49.27,0,.54.13.54.37Z"></path>
      <path class="cls-1" d="M4495.37,1205.6c-.82-.37-2.18-.62-3.42-.62-9.97,0-21.17,5.32-21.17,8.05,0,.62.82.74,1.78.74,4.51,0,10.38-1.98,22.81-8.18M4501.25,1211.17c0,.25-.14.5-.55.62-6.56,2.35-9.7,3.22-11.89,3.22-1.64,0-2.59-.5-2.59-1.37,0-1.11.55-2.23,2.73-3.96-8.06,3.71-12.7,5.08-16.39,5.08-1.78,0-3.14-.5-3.14-1.74s1.78-3.1,4.64-4.71c-5.05,1.74-7.79,2.48-10.93,3.47-.27,0-.55-.12-.55-.37s.14-.49.55-.62c5.6-1.74,11.75-3.59,16.67-4.95,3.68-.99,7.79-1.86,12.16-1.86,1.64,0,3.15.25,4.65.99l.68-.37.41.62c-8.61,4.83-10.11,6.81-10.11,8.05,0,.37.55.74,1.5.74,1.64,0,4.78-.87,11.61-3.22.27,0,.55.12.55.37"></path>
      <path class="cls-8" d="M4495.37,1205.6c-.82-.37-2.18-.62-3.42-.62-9.97,0-21.17,5.32-21.17,8.05,0,.62.82.74,1.78.74,4.51,0,10.38-1.98,22.81-8.18ZM4501.25,1211.17c0,.25-.14.5-.55.62-6.56,2.35-9.7,3.22-11.89,3.22-1.64,0-2.59-.5-2.59-1.37,0-1.11.55-2.23,2.73-3.96-8.06,3.71-12.7,5.08-16.39,5.08-1.78,0-3.14-.5-3.14-1.74s1.78-3.1,4.64-4.71c-5.05,1.74-7.79,2.48-10.93,3.47-.27,0-.55-.12-.55-.37s.14-.49.55-.62c5.6-1.74,11.75-3.59,16.67-4.95,3.68-.99,7.79-1.86,12.16-1.86,1.64,0,3.15.25,4.65.99l.68-.37.41.62c-8.61,4.83-10.11,6.81-10.11,8.05,0,.37.55.74,1.5.74,1.64,0,4.78-.87,11.61-3.22.27,0,.55.12.55.37Z"></path>
      <path class="cls-1" d="M4121.23,1203.82c41.22-18.1,70.31-48.59,70.31-54.16,0-1.39-.62-1.85-1.87-1.85-4.51,0-13.68,5.73-35.62,26.46-12.14,11.45-24.73,22.13-32.82,29.56M4104.27,1210.94c0-.31.16-.62.62-.77,4.2-1.39,8.25-2.94,12.29-4.49,7.93-7.89,22.39-19.34,36.08-32.5,21-20.11,31.26-26.61,36.55-26.61,2.18,0,2.96.93,2.96,3.09,0,6.04-31.27,39.15-74.35,56.94-3.58,3.41-5.6,5.88-5.6,6.96,0,.47.62.78,1.71.78,2.49,0,11.98-3.25,21-9.29,0-2.47,2.64-4.48,4.04-4.48.63,0,.94.46.94,1.08,0,.93-1.09,2.01-3.42,3.56.16.93,2.95,1.24,6.68,1.24.31,0,.63.31.63.62s-.32.62-.63.62c-3.89,0-7-.31-7.93-1.55-9.18,6.19-18.66,9.44-21.62,9.44-1.87,0-2.95-.62-2.95-1.7,0-1.39,1.24-3.41,3.74-6.04-3.42,1.39-6.69,2.48-10.11,3.56-.31,0-.62-.16-.62-.47"></path>
      <path class="cls-8" d="M4121.23,1203.82c41.22-18.1,70.31-48.59,70.31-54.16,0-1.39-.62-1.85-1.87-1.85-4.51,0-13.68,5.73-35.62,26.46-12.14,11.45-24.73,22.13-32.82,29.56ZM4104.27,1210.94c0-.31.16-.62.62-.77,4.2-1.39,8.25-2.94,12.29-4.49,7.93-7.89,22.39-19.34,36.08-32.5,21-20.11,31.26-26.61,36.55-26.61,2.18,0,2.96.93,2.96,3.09,0,6.04-31.27,39.15-74.35,56.94-3.58,3.41-5.6,5.88-5.6,6.96,0,.47.62.78,1.71.78,2.49,0,11.98-3.25,21-9.29,0-2.47,2.64-4.48,4.04-4.48.63,0,.94.46.94,1.08,0,.93-1.09,2.01-3.42,3.56.16.93,2.95,1.24,6.68,1.24.31,0,.63.31.63.62s-.32.62-.63.62c-3.89,0-7-.31-7.93-1.55-9.18,6.19-18.66,9.44-21.62,9.44-1.87,0-2.95-.62-2.95-1.7,0-1.39,1.24-3.41,3.74-6.04-3.42,1.39-6.69,2.48-10.11,3.56-.31,0-.62-.16-.62-.47Z"></path>
      <path class="cls-1" d="M4164.42,1223.32c-34.7,16.18-62.24,38.82-62.24,45.6,0,1.23.62,1.69,1.87,1.69,2.95,0,15.72-7.24,35.32-24.8,10.42-9.24,17.89-16.02,25.05-22.49M4191.03,1212.22c0,.31-.16.62-.62.77-7.63,2.47-15.25,5.39-22.41,8.63-8.4,7.39-15.72,14.17-28.01,25.26-19.76,17.72-32.52,25.26-36.1,25.26-2.18,0-2.95-.92-2.95-3.08,0-8.01,29.25-31.58,66.44-48.37,4.36-3.7,8.87-7.7,13.84-12.02-11.36,6.63-18.98,8.94-23.03,8.94-1.87,0-2.95-.62-2.95-1.69,0-3.54,10.27-7.55,10.27-9.86,0-.77-.63-1.08-1.71-1.08-3.89,0-13.07,4.32-20.07,4.32-.31,0-.62-.31-.62-.62s.31-.62.62-.62c7.32,0,15.87-4.31,20.38-4.31,1.87,0,2.95.46,2.95,1.84,0,3.7-10.27,8.01-10.27,10.01,0,.62.63.77,1.71.77,4.2,0,13.85-3.39,28.63-12.63l.63.92c-7,5.85-12.29,10.32-17.12,14.48,6.38-2.62,13.07-5.08,19.76-7.39.31,0,.62.16.62.46"></path>
      <path class="cls-8" d="M4164.42,1223.32c-34.7,16.18-62.24,38.82-62.24,45.6,0,1.23.62,1.69,1.87,1.69,2.95,0,15.72-7.24,35.32-24.8,10.42-9.24,17.89-16.02,25.05-22.49ZM4191.03,1212.22c0,.31-.16.62-.62.77-7.63,2.47-15.25,5.39-22.41,8.63-8.4,7.39-15.72,14.17-28.01,25.26-19.76,17.72-32.52,25.26-36.1,25.26-2.18,0-2.95-.92-2.95-3.08,0-8.01,29.25-31.58,66.44-48.37,4.36-3.7,8.87-7.7,13.84-12.02-11.36,6.63-18.98,8.94-23.03,8.94-1.87,0-2.95-.62-2.95-1.69,0-3.54,10.27-7.55,10.27-9.86,0-.77-.63-1.08-1.71-1.08-3.89,0-13.07,4.32-20.07,4.32-.31,0-.62-.31-.62-.62s.31-.62.62-.62c7.32,0,15.87-4.31,20.38-4.31,1.87,0,2.95.46,2.95,1.84,0,3.7-10.27,8.01-10.27,10.01,0,.62.63.77,1.71.77,4.2,0,13.85-3.39,28.63-12.63l.63.92c-7,5.85-12.29,10.32-17.12,14.48,6.38-2.62,13.07-5.08,19.76-7.39.31,0,.62.16.62.46Z"></path>
    </g>
  </g>
  <g>
    <g>
      <g>
        <path class="cls-14" d="M7162.88,620.03l-67.89,97.97v59h-42.41v-59l-70.22-97.97h49.98l42.14,68.37,40.35-68.37h48.06Z"></path>
        <path class="cls-14" d="M7328.39,708.41h-98.59v40.36h112.36v28.22h-153.81v-156.97h148.85v27.79h-107.4v33.33h98.59v27.26Z"></path>
        <path class="cls-14" d="M7464.98,781.36c-29.01,0-51.18-6.1-66.51-18.32-20.56-14.98-30.84-36.56-30.84-64.75s10.28-50.33,30.84-64.75c15.33-12.21,37.5-18.32,66.51-18.32s51.18,6.11,66.51,18.32c20.47,14.41,30.71,35.99,30.71,64.75s-10.24,49.77-30.71,64.75c-15.33,12.21-37.5,18.32-66.51,18.32ZM7505.05,739.19c9.82-9.58,14.73-23.22,14.73-40.89s-4.94-31.22-14.8-40.84c-9.87-9.62-23.2-14.43-40-14.43s-30.2,4.79-40.21,14.38c-10.01,9.58-15.01,23.22-15.01,40.89s5,31.31,15.01,40.89c10,9.58,23.41,14.38,40.21,14.38s30.16-4.79,40.07-14.38Z"></path>
        <path class="cls-14" d="M7758.69,777h-42.41l-82.89-111.5v111.5h-39.52v-156.97h44.48l80.83,109.58v-109.58h39.52v156.97Z"></path>
        <path class="cls-14" d="M7072.68,1016.03c10,0,18.13-.85,24.37-2.56,11.84-3.26,17.76-9.33,17.76-18.21,0-5.18-2.94-9.19-8.81-12.03-5.88-2.77-15.1-5.22-27.68-7.35l-21.48-3.73c-21.12-3.69-35.71-7.7-43.79-12.03-13.68-7.24-20.52-18.56-20.52-33.97,0-14.06,6.61-25.73,19.83-35.04,13.22-9.3,32.64-13.95,58.25-13.95,21.39,0,39.63,4.38,54.73,13.15,15.1,8.77,23.02,21.49,23.75,38.18h-40.76c-.74-9.44-6.06-16.15-15.97-20.13-6.61-2.63-14.83-3.94-24.65-3.94-10.93,0-19.65,1.7-26.16,5.11-6.52,3.41-9.78,8.16-9.78,14.27,0,5.61,3.21,9.8,9.64,12.57,4.13,1.85,12.94,4.01,26.44,6.5l34.97,6.5c15.33,2.84,26.9,6.64,34.7,11.39,12.12,7.38,18.18,18.07,18.18,32.05s-7.09,26.25-21.27,35.73c-14.18,9.48-34.22,14.22-60.1,14.22s-47.23-4.67-62.38-14c-15.15-9.33-22.72-22.17-22.72-38.5h40.48c1.28,7.17,3.81,12.53,7.57,16.08,6.88,6.46,18.68,9.69,35.39,9.69Z"></path>
        <path class="cls-14" d="M7334.59,881.74v27.79h-60.72v129.17h-42.69v-129.17h-61v-27.79h164.41Z"></path>
        <path class="cls-14" d="M7479.44,978.22v-96.48h43.1v96.48c0,16.68-3.35,29.68-10.05,38.98-12.49,17.04-36.31,25.56-71.47,25.56s-59.03-8.52-71.6-25.56c-6.7-9.3-10.05-22.29-10.05-38.98v-96.48h43.1v96.48c0,10.79,1.65,18.67,4.96,23.64,5.14,8.8,16.34,13.2,33.6,13.2s28.32-4.4,33.46-13.2c3.3-4.97,4.96-12.85,4.96-23.64Z"></path>
        <path class="cls-14" d="M7650.46,1038.71h-87.44v-156.97h87.44c12.58.14,23.04,1.28,31.4,3.41,14.23,3.62,25.75,10.26,34.56,19.91,7.07,7.81,11.89,16.26,14.46,25.35,2.57,9.09,3.86,17.75,3.86,25.98,0,20.87-5.42,38.55-16.25,53.03-14.69,19.52-37.36,29.29-68.02,29.29ZM7682,921.78c-6.52-8.52-19.42-12.78-38.69-12.78h-39.11v102.45h39.11c20.01,0,33.96-7.63,41.86-22.9,4.31-8.38,6.47-18.35,6.47-29.92,0-15.97-3.21-28.26-9.64-36.85Z"></path>
        <path class="cls-14" d="M7763.37,881.74h42.14v156.97h-42.14v-156.97Z"></path>
        <path class="cls-14" d="M7934.81,1043.08c-29.01,0-51.18-6.1-66.51-18.32-20.56-14.98-30.84-36.56-30.84-64.75s10.28-50.33,30.84-64.75c15.33-12.21,37.5-18.32,66.51-18.32s51.18,6.11,66.51,18.32c20.47,14.41,30.71,35.99,30.71,64.75s-10.24,49.77-30.71,64.75c-15.33,12.21-37.5,18.32-66.51,18.32ZM7974.88,1000.91c9.82-9.58,14.73-23.22,14.73-40.89s-4.94-31.22-14.8-40.84c-9.87-9.62-23.2-14.43-40-14.43s-30.2,4.79-40.21,14.38c-10.01,9.58-15.01,23.22-15.01,40.89s5,31.31,15.01,40.89c10,9.58,23.41,14.38,40.21,14.38s30.16-4.79,40.07-14.38Z"></path>
      </g>
      <g>
        <path class="cls-14" d="M6551.76,1210.02c6.19,4.37,22.93,4.37,48.28,4.37h269.32v-30.74h-272.95v-171.91h-50.61v163.48c0,20.29.92,31.24,5.96,34.8Z"></path>
        <path class="cls-14" d="M6667.29,849.37l.17-.13c29.21-21.37,43.41-51.41,43.41-91.82s-14.17-71.24-43.33-91.77l-.25-.19c-21.69-17.27-53.79-26.03-95.42-26.03s-73.73,8.76-95.42,26.03l-.26.2c-29.29,20.52-43.52,50.54-43.52,91.76s14.26,70.45,43.6,91.82l.18.14c21.68,17.27,53.79,26.03,95.42,26.03s73.73-8.76,95.42-26.03ZM6484.56,757.42c0-27.63,8.05-49.35,23.93-64.56,15.81-15.15,37.13-22.82,63.38-22.82s47.49,7.72,63.11,22.94c15.65,15.26,23.59,36.95,23.59,64.45s-7.9,49.32-23.48,64.53l-.02.02c-15.68,15.16-36.94,22.84-63.2,22.84s-47.57-7.68-63.38-22.83c-15.88-15.21-23.93-36.93-23.93-64.56Z"></path>
        <path class="cls-14" d="M6668.64,834.94h149.2v208.14h51.53v-427.84h-51.53v64.66h-156.29M6689.62,710.63h128.22v93.58h-123.28"></path>
        <polyline class="cls-14" points="6597.33 661.32 6597.33 615.23 6545.8 615.23 6545.8 654.62"></polyline>
      </g>
    </g>
    <g class="cls-10">
      <path class="cls-14" d="M7142.27,1245.16c2.17-4.91,4.58-9.72,7.53-14.2,4.74-6.67,9.4-13.42,13.27-20.64,9.05-16.14,15.1-34,17.01-52.44.45-4.05.42-8.15.68-12.21.06-.3.44-.25.47.05.49,4.09.8,8.21.64,12.33-.9,21.76-8.5,42.8-19.26,61.59-5.57,9.35-11.51,18.96-20.35,25.52"></path>
      <path class="cls-14" d="M7139.71,1228.35c4.76-.49,9.19-2.44,13.58-4.23,9.54-3.93,18.36-9.39,26.65-15.49-42.37-15.44-62.79,21.31-40.18,19.72h-.05M7326.32,1255.07c-29.47,0-58.66-6.85-85.72-18.35-9.4-3.95-18.62-8.3-27.72-12.88-9.96-5.01-19.84-10.26-30.26-14.27-9.47,6.79-19.52,12.86-30.44,17.02-4.67,1.79-9.48,3.72-14.58,3.6-7.09.11-10.57-6.1-7.47-12.31,2.44-5.11,7.39-8.51,12.39-10.84,12.32-5.53,26.54-3.82,38.99.43,22.17-16.26,43.81-38.81,55.47-63.93,6.32-13.74,9.88-32.37-2.2-43.93-9.41-8.79-23.49-8.26-35.15-5.05-23.19,6.26-53.71,29.15-55.84,54.64-1.01,12.54,8.21,22.34,18.49,28.03,1.01.45.74,1.25-.3.79-5.32-2.52-10.36-6-14.15-10.54-17.14-22.16,6.44-49.62,24.68-62.56,13.32-9.16,29.33-16.29,45.82-14.71,28.1,3.8,30.57,31.71,21.17,53.64-10.8,25.95-32.76,48.27-55.28,64.57,9.95,3.65,19.52,8.46,29.05,12.96,9.87,4.64,19.85,9.05,30.04,12.95,27.19,10.33,56.26,16.32,85.41,15.78,20.28-.53,40.89-3.9,59.33-12.48,5.88-2.85,11.27-6.09,16.29-10.06,4.36-3.55,8.15-7.66,12.15-11.59,2.97-3,5.89-6.04,8.77-9.12-4.24,5.22-8.67,10.42-13.04,15.58-20.31,25.44-54.9,32.44-85.91,32.62"></path>
      <path class="cls-1" d="M7221.85,1209.43c5.41-1.37,10.42-3.36,10.42-4.23,0-.37-.26-.5-.92-.5-2.51,0-6.6,2.24-9.5,4.73M7237.16,1211.17c0,.25-.13.5-.53.62-4.62,1.62-10.29,3.36-15.18,3.36-2.64,0-3.43-.74-3.43-1.87,0-.62.26-1.24.79-1.99l-1.98.5c-.26,0-.53-.12-.53-.37s.13-.5.53-.63l3.16-.87c4.36-3.99,8.71-6.22,11.48-6.22,1.19,0,1.98.62,1.98,1.37,0,1.86-5.94,3.85-13.07,5.72-.79.75-1.19,1.62-1.19,2.24,0,.5.26,1.12,2.51,1.12,4.36,0,10.16-1.74,14.91-3.36.26,0,.53.13.53.37"></path>
      <path class="cls-8" d="M7221.85,1209.43c5.41-1.37,10.42-3.36,10.42-4.23,0-.37-.26-.5-.92-.5-2.51,0-6.6,2.24-9.5,4.73ZM7237.16,1211.17c0,.25-.13.5-.53.62-4.62,1.62-10.29,3.36-15.18,3.36-2.64,0-3.43-.74-3.43-1.87,0-.62.26-1.24.79-1.99l-1.98.5c-.26,0-.53-.12-.53-.37s.13-.5.53-.63l3.16-.87c4.36-3.99,8.71-6.22,11.48-6.22,1.19,0,1.98.62,1.98,1.37,0,1.86-5.94,3.85-13.07,5.72-.79.75-1.19,1.62-1.19,2.24,0,.5.26,1.12,2.51,1.12,4.36,0,10.16-1.74,14.91-3.36.26,0,.53.13.53.37Z"></path>
      <path class="cls-1" d="M7252.89,1204.61c36.99-16.23,63.08-43.57,63.08-48.57,0-1.25-.56-1.66-1.67-1.66-4.05,0-12.28,5.13-31.96,23.73-10.89,10.27-22.19,19.84-29.45,26.5M7237.68,1210.99c0-.28.14-.55.56-.69,3.77-1.25,7.4-2.63,11.03-4.02,7.11-7.08,20.1-17.35,32.37-29.14,18.84-18.04,28.05-23.86,32.8-23.86,1.95,0,2.65.83,2.65,2.77,0,5.42-28.05,35.11-66.71,51.06-3.21,3.05-5.02,5.27-5.02,6.25,0,.42.56.69,1.53.69,2.23,0,10.74-2.92,18.84-8.33,0-2.22,2.37-4.02,3.63-4.02.56,0,.84.42.84.97,0,.83-.98,1.8-3.07,3.19.14.83,2.65,1.11,6,1.11.28,0,.56.27.56.55s-.28.56-.56.56c-3.49,0-6.28-.28-7.11-1.39-8.24,5.55-16.75,8.47-19.4,8.47-1.67,0-2.65-.56-2.65-1.53,0-1.25,1.12-3.05,3.35-5.41-3.07,1.25-6,2.22-9.07,3.19-.28,0-.56-.14-.56-.42"></path>
      <path class="cls-8" d="M7252.89,1204.61c36.99-16.23,63.08-43.57,63.08-48.57,0-1.25-.56-1.66-1.67-1.66-4.05,0-12.28,5.13-31.96,23.73-10.89,10.27-22.19,19.84-29.45,26.5ZM7237.68,1210.99c0-.28.14-.55.56-.69,3.77-1.25,7.4-2.63,11.03-4.02,7.11-7.08,20.1-17.35,32.37-29.14,18.84-18.04,28.05-23.86,32.8-23.86,1.95,0,2.65.83,2.65,2.77,0,5.42-28.05,35.11-66.71,51.06-3.21,3.05-5.02,5.27-5.02,6.25,0,.42.56.69,1.53.69,2.23,0,10.74-2.92,18.84-8.33,0-2.22,2.37-4.02,3.63-4.02.56,0,.84.42.84.97,0,.83-.98,1.8-3.07,3.19.14.83,2.65,1.11,6,1.11.28,0,.56.27.56.55s-.28.56-.56.56c-3.49,0-6.28-.28-7.11-1.39-8.24,5.55-16.75,8.47-19.4,8.47-1.67,0-2.65-.56-2.65-1.53,0-1.25,1.12-3.05,3.35-5.41-3.07,1.25-6,2.22-9.07,3.19-.28,0-.56-.14-.56-.42Z"></path>
      <path class="cls-1" d="M7281.22,1207.32c4.22-.5,8.05-1.37,8.05-2.11,0-.37-.26-.5-.92-.5-1.98,0-4.75,1.12-7.13,2.61M7294.15,1211.17c0,.25-.13.5-.53.62-4.62,1.62-10.3,3.36-15.18,3.36-2.64,0-3.43-.74-3.43-1.87,0-1.37,1.19-3.11,2.9-4.6-1.45.12-2.9.12-4.09.12-.26,0-.53-.25-.53-.5s.26-.5.53-.5c1.58,0,3.43,0,5.41-.25,2.9-2.12,6.6-3.86,9.24-3.86,1.19,0,1.98.62,1.98,1.49,0,1.49-5.41,2.74-10.95,3.36-1.98,1.49-3.3,3.23-3.3,4.48,0,.5.26,1.12,2.51,1.12,4.36,0,10.16-1.74,14.92-3.36.26,0,.53.13.53.37"></path>
      <path class="cls-8" d="M7281.22,1207.32c4.22-.5,8.05-1.37,8.05-2.11,0-.37-.26-.5-.92-.5-1.98,0-4.75,1.12-7.13,2.61ZM7294.15,1211.17c0,.25-.13.5-.53.62-4.62,1.62-10.3,3.36-15.18,3.36-2.64,0-3.43-.74-3.43-1.87,0-1.37,1.19-3.11,2.9-4.6-1.45.12-2.9.12-4.09.12-.26,0-.53-.25-.53-.5s.26-.5.53-.5c1.58,0,3.43,0,5.41-.25,2.9-2.12,6.6-3.86,9.24-3.86,1.19,0,1.98.62,1.98,1.49,0,1.49-5.41,2.74-10.95,3.36-1.98,1.49-3.3,3.23-3.3,4.48,0,.5.26,1.12,2.51,1.12,4.36,0,10.16-1.74,14.92-3.36.26,0,.53.13.53.37Z"></path>
      <path class="cls-1" d="M7324.78,1211.19c0,.25-.14.5-.54.62-9.18,2.74-15.26,3.48-19.18,3.48-2.7,0-3.64-.87-3.64-1.99,0-1.37,1.35-3.23,3.24-4.6l-.13-.12c-2.97,1.12-5.4,1.99-9.32,3.23-.27,0-.54-.12-.54-.37s.14-.5.54-.63c5.27-1.74,6.21-1.99,12.56-4.48,4.05-1.62,8.24-2.49,9.86-2.49,1.75,0,2.7.37,2.7,1.74,0,.75-.68,1.37-1.62,1.37-.81,0-1.48-.62-1.48-1.37,0-.25,0-.49.14-.74-6.21,0-14.72,5.73-14.72,8.21,0,.74.41,1.25,2.7,1.25,3.38,0,9.05-.5,18.91-3.49.27,0,.54.13.54.37"></path>
      <path class="cls-8" d="M7324.78,1211.19c0,.25-.14.5-.54.62-9.18,2.74-15.26,3.48-19.18,3.48-2.7,0-3.64-.87-3.64-1.99,0-1.37,1.35-3.23,3.24-4.6l-.13-.12c-2.97,1.12-5.4,1.99-9.32,3.23-.27,0-.54-.12-.54-.37s.14-.5.54-.63c5.27-1.74,6.21-1.99,12.56-4.48,4.05-1.62,8.24-2.49,9.86-2.49,1.75,0,2.7.37,2.7,1.74,0,.75-.68,1.37-1.62,1.37-.81,0-1.48-.62-1.48-1.37,0-.25,0-.49.14-.74-6.21,0-14.72,5.73-14.72,8.21,0,.74.41,1.25,2.7,1.25,3.38,0,9.05-.5,18.91-3.49.27,0,.54.13.54.37Z"></path>
      <path class="cls-1" d="M7355.41,1211.19c0,.25-.14.5-.54.62-9.18,2.74-15.26,3.48-19.18,3.48-2.7,0-3.64-.87-3.64-1.99,0-1.37,1.35-3.23,3.24-4.6l-.14-.12c-2.97,1.12-5.4,1.99-9.32,3.23-.27,0-.54-.12-.54-.37s.14-.5.54-.63c5.27-1.74,6.21-1.99,12.56-4.48,4.05-1.62,8.24-2.49,9.86-2.49,1.75,0,2.7.37,2.7,1.74,0,.75-.68,1.37-1.62,1.37-.81,0-1.48-.62-1.48-1.37,0-.25,0-.49.13-.74-6.21,0-14.72,5.73-14.72,8.21,0,.74.41,1.25,2.7,1.25,3.38,0,9.05-.5,18.91-3.49.27,0,.54.13.54.37"></path>
      <path class="cls-8" d="M7355.41,1211.19c0,.25-.14.5-.54.62-9.18,2.74-15.26,3.48-19.18,3.48-2.7,0-3.64-.87-3.64-1.99,0-1.37,1.35-3.23,3.24-4.6l-.14-.12c-2.97,1.12-5.4,1.99-9.32,3.23-.27,0-.54-.12-.54-.37s.14-.5.54-.63c5.27-1.74,6.21-1.99,12.56-4.48,4.05-1.62,8.24-2.49,9.86-2.49,1.75,0,2.7.37,2.7,1.74,0,.75-.68,1.37-1.62,1.37-.81,0-1.48-.62-1.48-1.37,0-.25,0-.49.13-.74-6.21,0-14.72,5.73-14.72,8.21,0,.74.41,1.25,2.7,1.25,3.38,0,9.05-.5,18.91-3.49.27,0,.54.13.54.37Z"></path>
      <path class="cls-1" d="M7388.71,1205.6c-.82-.37-2.18-.62-3.42-.62-9.97,0-21.17,5.32-21.17,8.05,0,.62.82.74,1.78.74,4.51,0,10.38-1.98,22.81-8.18M7394.59,1211.17c0,.25-.14.5-.55.62-6.56,2.35-9.7,3.22-11.89,3.22-1.64,0-2.59-.5-2.59-1.37,0-1.11.55-2.23,2.73-3.96-8.06,3.71-12.7,5.08-16.39,5.08-1.78,0-3.14-.5-3.14-1.74s1.78-3.1,4.64-4.71c-5.05,1.74-7.79,2.48-10.93,3.47-.27,0-.55-.12-.55-.37s.14-.49.55-.62c5.6-1.74,11.75-3.59,16.67-4.95,3.68-.99,7.79-1.86,12.16-1.86,1.64,0,3.15.25,4.65.99l.68-.37.41.62c-8.61,4.83-10.11,6.81-10.11,8.05,0,.37.55.74,1.5.74,1.64,0,4.78-.87,11.61-3.22.27,0,.55.12.55.37"></path>
      <path class="cls-8" d="M7388.71,1205.6c-.82-.37-2.18-.62-3.42-.62-9.97,0-21.17,5.32-21.17,8.05,0,.62.82.74,1.78.74,4.51,0,10.38-1.98,22.81-8.18ZM7394.59,1211.17c0,.25-.14.5-.55.62-6.56,2.35-9.7,3.22-11.89,3.22-1.64,0-2.59-.5-2.59-1.37,0-1.11.55-2.23,2.73-3.96-8.06,3.71-12.7,5.08-16.39,5.08-1.78,0-3.14-.5-3.14-1.74s1.78-3.1,4.64-4.71c-5.05,1.74-7.79,2.48-10.93,3.47-.27,0-.55-.12-.55-.37s.14-.49.55-.62c5.6-1.74,11.75-3.59,16.67-4.95,3.68-.99,7.79-1.86,12.16-1.86,1.64,0,3.15.25,4.65.99l.68-.37.41.62c-8.61,4.83-10.11,6.81-10.11,8.05,0,.37.55.74,1.5.74,1.64,0,4.78-.87,11.61-3.22.27,0,.55.12.55.37Z"></path>
      <path class="cls-1" d="M7014.56,1203.82c41.22-18.1,70.31-48.59,70.31-54.16,0-1.39-.62-1.85-1.87-1.85-4.51,0-13.68,5.73-35.62,26.46-12.14,11.45-24.73,22.13-32.82,29.56M6997.61,1210.94c0-.31.16-.62.62-.77,4.2-1.39,8.25-2.94,12.29-4.49,7.93-7.89,22.39-19.34,36.08-32.5,21-20.11,31.26-26.61,36.55-26.61,2.18,0,2.96.93,2.96,3.09,0,6.04-31.27,39.15-74.35,56.94-3.58,3.41-5.6,5.88-5.6,6.96,0,.47.62.78,1.71.78,2.49,0,11.98-3.25,21-9.29,0-2.47,2.64-4.48,4.04-4.48.63,0,.94.46.94,1.08,0,.93-1.09,2.01-3.42,3.56.16.93,2.95,1.24,6.68,1.24.31,0,.63.31.63.62s-.32.62-.63.62c-3.89,0-7-.31-7.93-1.55-9.18,6.19-18.66,9.44-21.62,9.44-1.87,0-2.95-.62-2.95-1.7,0-1.39,1.24-3.41,3.74-6.04-3.42,1.39-6.69,2.48-10.11,3.56-.31,0-.62-.16-.62-.47"></path>
      <path class="cls-8" d="M7014.56,1203.82c41.22-18.1,70.31-48.59,70.31-54.16,0-1.39-.62-1.85-1.87-1.85-4.51,0-13.68,5.73-35.62,26.46-12.14,11.45-24.73,22.13-32.82,29.56ZM6997.61,1210.94c0-.31.16-.62.62-.77,4.2-1.39,8.25-2.94,12.29-4.49,7.93-7.89,22.39-19.34,36.08-32.5,21-20.11,31.26-26.61,36.55-26.61,2.18,0,2.96.93,2.96,3.09,0,6.04-31.27,39.15-74.35,56.94-3.58,3.41-5.6,5.88-5.6,6.96,0,.47.62.78,1.71.78,2.49,0,11.98-3.25,21-9.29,0-2.47,2.64-4.48,4.04-4.48.63,0,.94.46.94,1.08,0,.93-1.09,2.01-3.42,3.56.16.93,2.95,1.24,6.68,1.24.31,0,.63.31.63.62s-.32.62-.63.62c-3.89,0-7-.31-7.93-1.55-9.18,6.19-18.66,9.44-21.62,9.44-1.87,0-2.95-.62-2.95-1.7,0-1.39,1.24-3.41,3.74-6.04-3.42,1.39-6.69,2.48-10.11,3.56-.31,0-.62-.16-.62-.47Z"></path>
      <path class="cls-1" d="M7057.76,1223.32c-34.7,16.18-62.24,38.82-62.24,45.6,0,1.23.62,1.69,1.87,1.69,2.95,0,15.72-7.24,35.32-24.8,10.42-9.24,17.89-16.02,25.05-22.49M7084.37,1212.22c0,.31-.16.62-.62.77-7.63,2.47-15.25,5.39-22.41,8.63-8.4,7.39-15.72,14.17-28.01,25.26-19.76,17.72-32.52,25.26-36.1,25.26-2.18,0-2.95-.92-2.95-3.08,0-8.01,29.25-31.58,66.44-48.37,4.36-3.7,8.87-7.7,13.84-12.02-11.36,6.63-18.98,8.94-23.03,8.94-1.87,0-2.95-.62-2.95-1.69,0-3.54,10.27-7.55,10.27-9.86,0-.77-.63-1.08-1.71-1.08-3.89,0-13.07,4.32-20.07,4.32-.31,0-.62-.31-.62-.62s.31-.62.62-.62c7.32,0,15.87-4.31,20.38-4.31,1.87,0,2.95.46,2.95,1.84,0,3.7-10.27,8.01-10.27,10.01,0,.62.63.77,1.71.77,4.2,0,13.85-3.39,28.63-12.63l.63.92c-7,5.85-12.29,10.32-17.12,14.48,6.38-2.62,13.07-5.08,19.76-7.39.31,0,.62.16.62.46"></path>
      <path class="cls-8" d="M7057.76,1223.32c-34.7,16.18-62.24,38.82-62.24,45.6,0,1.23.62,1.69,1.87,1.69,2.95,0,15.72-7.24,35.32-24.8,10.42-9.24,17.89-16.02,25.05-22.49ZM7084.37,1212.22c0,.31-.16.62-.62.77-7.63,2.47-15.25,5.39-22.41,8.63-8.4,7.39-15.72,14.17-28.01,25.26-19.76,17.72-32.52,25.26-36.1,25.26-2.18,0-2.95-.92-2.95-3.08,0-8.01,29.25-31.58,66.44-48.37,4.36-3.7,8.87-7.7,13.84-12.02-11.36,6.63-18.98,8.94-23.03,8.94-1.87,0-2.95-.62-2.95-1.69,0-3.54,10.27-7.55,10.27-9.86,0-.77-.63-1.08-1.71-1.08-3.89,0-13.07,4.32-20.07,4.32-.31,0-.62-.31-.62-.62s.31-.62.62-.62c7.32,0,15.87-4.31,20.38-4.31,1.87,0,2.95.46,2.95,1.84,0,3.7-10.27,8.01-10.27,10.01,0,.62.63.77,1.71.77,4.2,0,13.85-3.39,28.63-12.63l.63.92c-7,5.85-12.29,10.32-17.12,14.48,6.38-2.62,13.07-5.08,19.76-7.39.31,0,.62.16.62.46Z"></path>
    </g>
  </g>
  <g>
    <g>
      <g>
        <path class="cls-5" d="M1376.2,2506.22l-67.89,97.97v59h-42.41v-59l-70.22-97.97h49.98l42.14,68.37,40.35-68.37h48.06Z"></path>
        <path class="cls-5" d="M1541.71,2594.61h-98.59v40.36h112.36v28.22h-153.81v-156.97h148.85v27.79h-107.4v33.33h98.59v27.26Z"></path>
        <path class="cls-5" d="M1678.31,2667.56c-29.01,0-51.18-6.1-66.51-18.32-20.56-14.98-30.84-36.56-30.84-64.75s10.28-50.33,30.84-64.75c15.33-12.21,37.5-18.32,66.51-18.32s51.18,6.11,66.51,18.32c20.47,14.41,30.71,35.99,30.71,64.75s-10.24,49.77-30.71,64.75c-15.33,12.21-37.5,18.32-66.51,18.32ZM1718.38,2625.39c9.82-9.58,14.73-23.22,14.73-40.89s-4.94-31.22-14.8-40.84c-9.87-9.62-23.2-14.43-40-14.43s-30.2,4.79-40.21,14.38c-10.01,9.58-15.01,23.22-15.01,40.89s5,31.31,15.01,40.89c10,9.58,23.41,14.38,40.21,14.38s30.16-4.79,40.07-14.38Z"></path>
        <path class="cls-5" d="M1972.02,2663.19h-42.41l-82.89-111.5v111.5h-39.52v-156.97h44.48l80.83,109.58v-109.58h39.52v156.97Z"></path>
        <path class="cls-5" d="M1286.01,2902.22c10,0,18.13-.85,24.37-2.56,11.84-3.26,17.76-9.33,17.76-18.21,0-5.18-2.94-9.19-8.81-12.03-5.88-2.77-15.1-5.22-27.68-7.35l-21.48-3.73c-21.12-3.69-35.71-7.7-43.79-12.03-13.68-7.24-20.52-18.56-20.52-33.97,0-14.06,6.61-25.73,19.83-35.04,13.22-9.3,32.64-13.95,58.25-13.95,21.39,0,39.63,4.38,54.73,13.15,15.1,8.77,23.02,21.49,23.75,38.18h-40.76c-.74-9.44-6.06-16.15-15.97-20.13-6.61-2.63-14.83-3.94-24.65-3.94-10.93,0-19.65,1.7-26.16,5.11-6.52,3.41-9.78,8.16-9.78,14.27,0,5.61,3.21,9.8,9.64,12.57,4.13,1.85,12.94,4.01,26.44,6.5l34.97,6.5c15.33,2.84,26.9,6.64,34.7,11.39,12.12,7.38,18.18,18.07,18.18,32.05s-7.09,26.25-21.27,35.73c-14.18,9.48-34.22,14.22-60.1,14.22s-47.23-4.67-62.38-14c-15.15-9.33-22.72-22.17-22.72-38.5h40.48c1.28,7.17,3.81,12.53,7.57,16.08,6.88,6.46,18.68,9.69,35.39,9.69Z"></path>
        <path class="cls-5" d="M1547.91,2767.94v27.79h-60.72v129.17h-42.69v-129.17h-61v-27.79h164.41Z"></path>
        <path class="cls-5" d="M1692.76,2864.42v-96.48h43.1v96.48c0,16.68-3.35,29.68-10.05,38.98-12.49,17.04-36.31,25.56-71.47,25.56s-59.03-8.52-71.6-25.56c-6.7-9.3-10.05-22.29-10.05-38.98v-96.48h43.1v96.48c0,10.79,1.65,18.67,4.96,23.64,5.14,8.8,16.34,13.2,33.6,13.2s28.32-4.4,33.46-13.2c3.3-4.97,4.96-12.85,4.96-23.64Z"></path>
        <path class="cls-5" d="M1863.78,2924.91h-87.44v-156.97h87.44c12.58.14,23.04,1.28,31.4,3.41,14.23,3.62,25.75,10.26,34.56,19.91,7.07,7.81,11.89,16.26,14.46,25.35,2.57,9.09,3.86,17.75,3.86,25.98,0,20.87-5.42,38.55-16.25,53.03-14.69,19.52-37.36,29.29-68.02,29.29ZM1895.32,2807.98c-6.52-8.52-19.42-12.78-38.69-12.78h-39.11v102.45h39.11c20.01,0,33.96-7.63,41.86-22.9,4.31-8.38,6.47-18.35,6.47-29.92,0-15.97-3.21-28.26-9.64-36.85Z"></path>
        <path class="cls-5" d="M1976.7,2767.94h42.14v156.97h-42.14v-156.97Z"></path>
        <path class="cls-5" d="M2148.13,2929.27c-29.01,0-51.18-6.1-66.51-18.32-20.56-14.98-30.84-36.56-30.84-64.75s10.28-50.33,30.84-64.75c15.33-12.21,37.5-18.32,66.51-18.32s51.18,6.11,66.51,18.32c20.47,14.41,30.71,35.99,30.71,64.75s-10.24,49.77-30.71,64.75c-15.33,12.21-37.5,18.32-66.51,18.32ZM2188.2,2887.1c9.82-9.58,14.73-23.22,14.73-40.89s-4.94-31.22-14.8-40.84c-9.87-9.62-23.2-14.43-40-14.43s-30.2,4.79-40.21,14.38c-10.01,9.58-15.01,23.22-15.01,40.89s5,31.31,15.01,40.89c10,9.58,23.41,14.38,40.21,14.38s30.16-4.79,40.07-14.38Z"></path>
      </g>
      <g>
        <path class="cls-5" d="M765.08,3096.22c6.19,4.37,22.93,4.37,48.28,4.37h269.32v-30.74h-272.95v-171.91h-50.61v163.48c0,20.29.92,31.24,5.96,34.8Z"></path>
        <path class="cls-5" d="M880.61,2735.57l.17-.13c29.21-21.37,43.41-51.41,43.41-91.82s-14.17-71.24-43.33-91.77l-.25-.19c-21.69-17.27-53.79-26.03-95.42-26.03s-73.73,8.76-95.42,26.03l-.26.2c-29.29,20.52-43.52,50.54-43.52,91.76s14.26,70.45,43.6,91.82l.18.14c21.68,17.27,53.79,26.03,95.42,26.03s73.73-8.76,95.42-26.03ZM697.89,2643.61c0-27.63,8.05-49.35,23.93-64.56,15.81-15.15,37.13-22.82,63.38-22.82s47.49,7.72,63.11,22.94c15.65,15.26,23.59,36.95,23.59,64.45s-7.9,49.32-23.48,64.53l-.02.02c-15.68,15.16-36.94,22.84-63.2,22.84s-47.57-7.68-63.38-22.83c-15.88-15.21-23.93-36.93-23.93-64.56Z"></path>
        <path class="cls-5" d="M881.96,2721.14h149.2v208.14h51.53v-427.84h-51.53v64.66h-156.29M902.94,2596.83h128.22v93.58h-123.28"></path>
        <polyline class="cls-5" points="810.65 2547.52 810.65 2501.43 759.12 2501.43 759.12 2540.81"></polyline>
      </g>
    </g>
    <g class="cls-11">
      <path class="cls-5" d="M1355.59,3131.36c2.17-4.91,4.58-9.72,7.53-14.2,4.74-6.67,9.4-13.42,13.27-20.64,9.05-16.14,15.1-34,17.01-52.44.45-4.05.42-8.15.68-12.21.06-.3.44-.25.47.05.49,4.09.8,8.21.64,12.33-.9,21.76-8.5,42.8-19.26,61.59-5.57,9.35-11.51,18.96-20.35,25.52"></path>
      <path class="cls-5" d="M1353.04,3114.55c4.76-.49,9.19-2.44,13.58-4.23,9.54-3.93,18.36-9.39,26.65-15.49-42.37-15.44-62.79,21.31-40.18,19.72h-.05M1539.64,3141.27c-29.47,0-58.66-6.85-85.72-18.35-9.4-3.95-18.62-8.3-27.72-12.88-9.96-5.01-19.84-10.26-30.26-14.27-9.47,6.79-19.52,12.86-30.44,17.02-4.67,1.79-9.48,3.72-14.58,3.6-7.09.11-10.57-6.1-7.47-12.31,2.44-5.11,7.39-8.51,12.39-10.84,12.32-5.53,26.54-3.82,38.99.43,22.17-16.26,43.81-38.81,55.47-63.93,6.32-13.74,9.88-32.37-2.2-43.93-9.41-8.79-23.49-8.26-35.15-5.05-23.19,6.26-53.71,29.15-55.84,54.64-1.01,12.54,8.21,22.34,18.49,28.03,1.01.45.74,1.25-.3.79-5.32-2.52-10.36-6-14.15-10.54-17.14-22.16,6.44-49.62,24.68-62.56,13.32-9.16,29.33-16.29,45.82-14.71,28.1,3.8,30.57,31.71,21.17,53.64-10.8,25.95-32.76,48.27-55.28,64.57,9.95,3.65,19.52,8.46,29.05,12.96,9.87,4.64,19.85,9.05,30.04,12.95,27.19,10.33,56.26,16.32,85.41,15.78,20.28-.53,40.89-3.9,59.33-12.48,5.88-2.85,11.27-6.09,16.29-10.06,4.36-3.55,8.15-7.66,12.15-11.59,2.97-3,5.89-6.04,8.77-9.12-4.24,5.22-8.67,10.42-13.04,15.58-20.31,25.44-54.9,32.44-85.91,32.62"></path>
      <path class="cls-6" d="M1435.17,3095.63c5.41-1.37,10.42-3.36,10.42-4.23,0-.37-.26-.5-.92-.5-2.51,0-6.6,2.24-9.5,4.73M1450.49,3097.37c0,.25-.13.5-.53.62-4.62,1.62-10.29,3.36-15.18,3.36-2.64,0-3.43-.74-3.43-1.87,0-.62.26-1.24.79-1.99l-1.98.5c-.26,0-.53-.12-.53-.37s.13-.5.53-.63l3.16-.87c4.36-3.99,8.71-6.22,11.48-6.22,1.19,0,1.98.62,1.98,1.37,0,1.86-5.94,3.85-13.07,5.72-.79.75-1.19,1.62-1.19,2.24,0,.5.26,1.12,2.51,1.12,4.36,0,10.16-1.74,14.91-3.36.26,0,.53.13.53.37"></path>
      <path class="cls-6" d="M1435.17,3095.63c5.41-1.37,10.42-3.36,10.42-4.23,0-.37-.26-.5-.92-.5-2.51,0-6.6,2.24-9.5,4.73ZM1450.49,3097.37c0,.25-.13.5-.53.62-4.62,1.62-10.29,3.36-15.18,3.36-2.64,0-3.43-.74-3.43-1.87,0-.62.26-1.24.79-1.99l-1.98.5c-.26,0-.53-.12-.53-.37s.13-.5.53-.63l3.16-.87c4.36-3.99,8.71-6.22,11.48-6.22,1.19,0,1.98.62,1.98,1.37,0,1.86-5.94,3.85-13.07,5.72-.79.75-1.19,1.62-1.19,2.24,0,.5.26,1.12,2.51,1.12,4.36,0,10.16-1.74,14.91-3.36.26,0,.53.13.53.37Z"></path>
      <path class="cls-6" d="M1466.21,3090.81c36.99-16.23,63.08-43.57,63.08-48.57,0-1.25-.56-1.66-1.67-1.66-4.05,0-12.28,5.13-31.96,23.73-10.89,10.27-22.19,19.84-29.45,26.5M1451,3097.19c0-.28.14-.55.56-.69,3.77-1.25,7.4-2.63,11.03-4.02,7.11-7.08,20.1-17.35,32.37-29.14,18.84-18.04,28.05-23.86,32.8-23.86,1.95,0,2.65.83,2.65,2.77,0,5.42-28.05,35.11-66.71,51.06-3.21,3.05-5.02,5.27-5.02,6.25,0,.42.56.69,1.53.69,2.23,0,10.74-2.92,18.84-8.33,0-2.22,2.37-4.02,3.63-4.02.56,0,.84.42.84.97,0,.83-.98,1.8-3.07,3.19.14.83,2.65,1.11,6,1.11.28,0,.56.27.56.55s-.28.56-.56.56c-3.49,0-6.28-.28-7.11-1.39-8.24,5.55-16.75,8.47-19.4,8.47-1.67,0-2.65-.56-2.65-1.53,0-1.25,1.12-3.05,3.35-5.41-3.07,1.25-6,2.22-9.07,3.19-.28,0-.56-.14-.56-.42"></path>
      <path class="cls-6" d="M1466.21,3090.81c36.99-16.23,63.08-43.57,63.08-48.57,0-1.25-.56-1.66-1.67-1.66-4.05,0-12.28,5.13-31.96,23.73-10.89,10.27-22.19,19.84-29.45,26.5ZM1451,3097.19c0-.28.14-.55.56-.69,3.77-1.25,7.4-2.63,11.03-4.02,7.11-7.08,20.1-17.35,32.37-29.14,18.84-18.04,28.05-23.86,32.8-23.86,1.95,0,2.65.83,2.65,2.77,0,5.42-28.05,35.11-66.71,51.06-3.21,3.05-5.02,5.27-5.02,6.25,0,.42.56.69,1.53.69,2.23,0,10.74-2.92,18.84-8.33,0-2.22,2.37-4.02,3.63-4.02.56,0,.84.42.84.97,0,.83-.98,1.8-3.07,3.19.14.83,2.65,1.11,6,1.11.28,0,.56.27.56.55s-.28.56-.56.56c-3.49,0-6.28-.28-7.11-1.39-8.24,5.55-16.75,8.47-19.4,8.47-1.67,0-2.65-.56-2.65-1.53,0-1.25,1.12-3.05,3.35-5.41-3.07,1.25-6,2.22-9.07,3.19-.28,0-.56-.14-.56-.42Z"></path>
      <path class="cls-6" d="M1494.54,3093.51c4.22-.5,8.05-1.37,8.05-2.11,0-.37-.26-.5-.92-.5-1.98,0-4.75,1.12-7.13,2.61M1507.47,3097.37c0,.25-.13.5-.53.62-4.62,1.62-10.3,3.36-15.18,3.36-2.64,0-3.43-.74-3.43-1.87,0-1.37,1.19-3.11,2.9-4.6-1.45.12-2.9.12-4.09.12-.26,0-.53-.25-.53-.5s.26-.5.53-.5c1.58,0,3.43,0,5.41-.25,2.9-2.12,6.6-3.86,9.24-3.86,1.19,0,1.98.62,1.98,1.49,0,1.49-5.41,2.74-10.95,3.36-1.98,1.49-3.3,3.23-3.3,4.48,0,.5.26,1.12,2.51,1.12,4.36,0,10.16-1.74,14.92-3.36.26,0,.53.13.53.37"></path>
      <path class="cls-6" d="M1494.54,3093.51c4.22-.5,8.05-1.37,8.05-2.11,0-.37-.26-.5-.92-.5-1.98,0-4.75,1.12-7.13,2.61ZM1507.47,3097.37c0,.25-.13.5-.53.62-4.62,1.62-10.3,3.36-15.18,3.36-2.64,0-3.43-.74-3.43-1.87,0-1.37,1.19-3.11,2.9-4.6-1.45.12-2.9.12-4.09.12-.26,0-.53-.25-.53-.5s.26-.5.53-.5c1.58,0,3.43,0,5.41-.25,2.9-2.12,6.6-3.86,9.24-3.86,1.19,0,1.98.62,1.98,1.49,0,1.49-5.41,2.74-10.95,3.36-1.98,1.49-3.3,3.23-3.3,4.48,0,.5.26,1.12,2.51,1.12,4.36,0,10.16-1.74,14.92-3.36.26,0,.53.13.53.37Z"></path>
      <path class="cls-6" d="M1538.1,3097.39c0,.25-.14.5-.54.62-9.18,2.74-15.26,3.48-19.18,3.48-2.7,0-3.64-.87-3.64-1.99,0-1.37,1.35-3.23,3.24-4.6l-.13-.12c-2.97,1.12-5.4,1.99-9.32,3.23-.27,0-.54-.12-.54-.37s.14-.5.54-.63c5.27-1.74,6.21-1.99,12.56-4.48,4.05-1.62,8.24-2.49,9.86-2.49,1.75,0,2.7.37,2.7,1.74,0,.75-.68,1.37-1.62,1.37-.81,0-1.48-.62-1.48-1.37,0-.25,0-.49.14-.74-6.21,0-14.72,5.73-14.72,8.21,0,.74.41,1.25,2.7,1.25,3.38,0,9.05-.5,18.91-3.49.27,0,.54.13.54.37"></path>
      <path class="cls-6" d="M1538.1,3097.39c0,.25-.14.5-.54.62-9.18,2.74-15.26,3.48-19.18,3.48-2.7,0-3.64-.87-3.64-1.99,0-1.37,1.35-3.23,3.24-4.6l-.13-.12c-2.97,1.12-5.4,1.99-9.32,3.23-.27,0-.54-.12-.54-.37s.14-.5.54-.63c5.27-1.74,6.21-1.99,12.56-4.48,4.05-1.62,8.24-2.49,9.86-2.49,1.75,0,2.7.37,2.7,1.74,0,.75-.68,1.37-1.62,1.37-.81,0-1.48-.62-1.48-1.37,0-.25,0-.49.14-.74-6.21,0-14.72,5.73-14.72,8.21,0,.74.41,1.25,2.7,1.25,3.38,0,9.05-.5,18.91-3.49.27,0,.54.13.54.37Z"></path>
      <path class="cls-6" d="M1568.73,3097.39c0,.25-.14.5-.54.62-9.18,2.74-15.26,3.48-19.18,3.48-2.7,0-3.64-.87-3.64-1.99,0-1.37,1.35-3.23,3.24-4.6l-.14-.12c-2.97,1.12-5.4,1.99-9.32,3.23-.27,0-.54-.12-.54-.37s.14-.5.54-.63c5.27-1.74,6.21-1.99,12.56-4.48,4.05-1.62,8.24-2.49,9.86-2.49,1.75,0,2.7.37,2.7,1.74,0,.75-.68,1.37-1.62,1.37-.81,0-1.48-.62-1.48-1.37,0-.25,0-.49.13-.74-6.21,0-14.72,5.73-14.72,8.21,0,.74.41,1.25,2.7,1.25,3.38,0,9.05-.5,18.91-3.49.27,0,.54.13.54.37"></path>
      <path class="cls-6" d="M1568.73,3097.39c0,.25-.14.5-.54.62-9.18,2.74-15.26,3.48-19.18,3.48-2.7,0-3.64-.87-3.64-1.99,0-1.37,1.35-3.23,3.24-4.6l-.14-.12c-2.97,1.12-5.4,1.99-9.32,3.23-.27,0-.54-.12-.54-.37s.14-.5.54-.63c5.27-1.74,6.21-1.99,12.56-4.48,4.05-1.62,8.24-2.49,9.86-2.49,1.75,0,2.7.37,2.7,1.74,0,.75-.68,1.37-1.62,1.37-.81,0-1.48-.62-1.48-1.37,0-.25,0-.49.13-.74-6.21,0-14.72,5.73-14.72,8.21,0,.74.41,1.25,2.7,1.25,3.38,0,9.05-.5,18.91-3.49.27,0,.54.13.54.37Z"></path>
      <path class="cls-6" d="M1602.03,3091.8c-.82-.37-2.18-.62-3.42-.62-9.97,0-21.17,5.32-21.17,8.05,0,.62.82.74,1.78.74,4.51,0,10.38-1.98,22.81-8.18M1607.91,3097.37c0,.25-.14.5-.55.62-6.56,2.35-9.7,3.22-11.89,3.22-1.64,0-2.59-.5-2.59-1.37,0-1.11.55-2.23,2.73-3.96-8.06,3.71-12.7,5.08-16.39,5.08-1.78,0-3.14-.5-3.14-1.74s1.78-3.1,4.64-4.71c-5.05,1.74-7.79,2.48-10.93,3.47-.27,0-.55-.12-.55-.37s.14-.49.55-.62c5.6-1.74,11.75-3.59,16.67-4.95,3.68-.99,7.79-1.86,12.16-1.86,1.64,0,3.15.25,4.65.99l.68-.37.41.62c-8.61,4.83-10.11,6.81-10.11,8.05,0,.37.55.74,1.5.74,1.64,0,4.78-.87,11.61-3.22.27,0,.55.12.55.37"></path>
      <path class="cls-6" d="M1602.03,3091.8c-.82-.37-2.18-.62-3.42-.62-9.97,0-21.17,5.32-21.17,8.05,0,.62.82.74,1.78.74,4.51,0,10.38-1.98,22.81-8.18ZM1607.91,3097.37c0,.25-.14.5-.55.62-6.56,2.35-9.7,3.22-11.89,3.22-1.64,0-2.59-.5-2.59-1.37,0-1.11.55-2.23,2.73-3.96-8.06,3.71-12.7,5.08-16.39,5.08-1.78,0-3.14-.5-3.14-1.74s1.78-3.1,4.64-4.71c-5.05,1.74-7.79,2.48-10.93,3.47-.27,0-.55-.12-.55-.37s.14-.49.55-.62c5.6-1.74,11.75-3.59,16.67-4.95,3.68-.99,7.79-1.86,12.16-1.86,1.64,0,3.15.25,4.65.99l.68-.37.41.62c-8.61,4.83-10.11,6.81-10.11,8.05,0,.37.55.74,1.5.74,1.64,0,4.78-.87,11.61-3.22.27,0,.55.12.55.37Z"></path>
      <path class="cls-6" d="M1227.89,3090.02c41.22-18.1,70.31-48.59,70.31-54.16,0-1.39-.62-1.85-1.87-1.85-4.51,0-13.68,5.73-35.62,26.46-12.14,11.45-24.73,22.13-32.82,29.56M1210.93,3097.14c0-.31.16-.62.62-.77,4.2-1.39,8.25-2.94,12.29-4.49,7.93-7.89,22.39-19.34,36.08-32.5,21-20.11,31.26-26.61,36.55-26.61,2.18,0,2.96.93,2.96,3.09,0,6.04-31.27,39.15-74.35,56.94-3.58,3.41-5.6,5.88-5.6,6.96,0,.47.62.78,1.71.78,2.49,0,11.98-3.25,21-9.29,0-2.47,2.64-4.48,4.04-4.48.63,0,.94.46.94,1.08,0,.93-1.09,2.01-3.42,3.56.16.93,2.95,1.24,6.68,1.24.31,0,.63.31.63.62s-.32.62-.63.62c-3.89,0-7-.31-7.93-1.55-9.18,6.19-18.66,9.44-21.62,9.44-1.87,0-2.95-.62-2.95-1.7,0-1.39,1.24-3.41,3.74-6.04-3.42,1.39-6.69,2.48-10.11,3.56-.31,0-.62-.16-.62-.47"></path>
      <path class="cls-6" d="M1227.89,3090.02c41.22-18.1,70.31-48.59,70.31-54.16,0-1.39-.62-1.85-1.87-1.85-4.51,0-13.68,5.73-35.62,26.46-12.14,11.45-24.73,22.13-32.82,29.56ZM1210.93,3097.14c0-.31.16-.62.62-.77,4.2-1.39,8.25-2.94,12.29-4.49,7.93-7.89,22.39-19.34,36.08-32.5,21-20.11,31.26-26.61,36.55-26.61,2.18,0,2.96.93,2.96,3.09,0,6.04-31.27,39.15-74.35,56.94-3.58,3.41-5.6,5.88-5.6,6.96,0,.47.62.78,1.71.78,2.49,0,11.98-3.25,21-9.29,0-2.47,2.64-4.48,4.04-4.48.63,0,.94.46.94,1.08,0,.93-1.09,2.01-3.42,3.56.16.93,2.95,1.24,6.68,1.24.31,0,.63.31.63.62s-.32.62-.63.62c-3.89,0-7-.31-7.93-1.55-9.18,6.19-18.66,9.44-21.62,9.44-1.87,0-2.95-.62-2.95-1.7,0-1.39,1.24-3.41,3.74-6.04-3.42,1.39-6.69,2.48-10.11,3.56-.31,0-.62-.16-.62-.47Z"></path>
      <path class="cls-6" d="M1271.09,3109.51c-34.7,16.18-62.24,38.82-62.24,45.6,0,1.23.62,1.69,1.87,1.69,2.95,0,15.72-7.24,35.32-24.8,10.42-9.24,17.89-16.02,25.05-22.49M1297.69,3098.42c0,.31-.16.62-.62.77-7.63,2.47-15.25,5.39-22.41,8.63-8.4,7.39-15.72,14.17-28.01,25.26-19.76,17.72-32.52,25.26-36.1,25.26-2.18,0-2.95-.92-2.95-3.08,0-8.01,29.25-31.58,66.44-48.37,4.36-3.7,8.87-7.7,13.84-12.02-11.36,6.63-18.98,8.94-23.03,8.94-1.87,0-2.95-.62-2.95-1.69,0-3.54,10.27-7.55,10.27-9.86,0-.77-.63-1.08-1.71-1.08-3.89,0-13.07,4.32-20.07,4.32-.31,0-.62-.31-.62-.62s.31-.62.62-.62c7.32,0,15.87-4.31,20.38-4.31,1.87,0,2.95.46,2.95,1.84,0,3.7-10.27,8.01-10.27,10.01,0,.62.63.77,1.71.77,4.2,0,13.85-3.39,28.63-12.63l.63.92c-7,5.85-12.29,10.32-17.12,14.48,6.38-2.62,13.07-5.08,19.76-7.39.31,0,.62.16.62.46"></path>
      <path class="cls-6" d="M1271.09,3109.51c-34.7,16.18-62.24,38.82-62.24,45.6,0,1.23.62,1.69,1.87,1.69,2.95,0,15.72-7.24,35.32-24.8,10.42-9.24,17.89-16.02,25.05-22.49ZM1297.69,3098.42c0,.31-.16.62-.62.77-7.63,2.47-15.25,5.39-22.41,8.63-8.4,7.39-15.72,14.17-28.01,25.26-19.76,17.72-32.52,25.26-36.1,25.26-2.18,0-2.95-.92-2.95-3.08,0-8.01,29.25-31.58,66.44-48.37,4.36-3.7,8.87-7.7,13.84-12.02-11.36,6.63-18.98,8.94-23.03,8.94-1.87,0-2.95-.62-2.95-1.69,0-3.54,10.27-7.55,10.27-9.86,0-.77-.63-1.08-1.71-1.08-3.89,0-13.07,4.32-20.07,4.32-.31,0-.62-.31-.62-.62s.31-.62.62-.62c7.32,0,15.87-4.31,20.38-4.31,1.87,0,2.95.46,2.95,1.84,0,3.7-10.27,8.01-10.27,10.01,0,.62.63.77,1.71.77,4.2,0,13.85-3.39,28.63-12.63l.63.92c-7,5.85-12.29,10.32-17.12,14.48,6.38-2.62,13.07-5.08,19.76-7.39.31,0,.62.16.62.46Z"></path>
    </g>
  </g>
  <g class="cls-13">
    <path class="cls-4" d="M4182.36,2481.87c.05-.11.1-.21.17-.31.1-.15.21-.29.29-.45.2-.35.33-.74.37-1.15,0-.09,0-.18.01-.27,0,0,0,0,.01,0,.01.09.02.18.01.27-.02.48-.19.94-.42,1.35-.12.2-.25.42-.45.56"></path>
    <path class="cls-4" d="M4182.31,2481.5c.1-.01.2-.05.3-.09.21-.09.4-.21.58-.34-.93-.34-1.38.47-.88.43h0M4186.39,2482.09c-.65,0-1.28-.15-1.88-.4-.21-.09-.41-.18-.61-.28-.22-.11-.43-.22-.66-.31-.21.15-.43.28-.67.37-.1.04-.21.08-.32.08-.16,0-.23-.13-.16-.27.05-.11.16-.19.27-.24.27-.12.58-.08.85,0,.49-.36.96-.85,1.21-1.4.14-.3.22-.71-.05-.96-.21-.19-.51-.18-.77-.11-.51.14-1.18.64-1.22,1.2-.02.27.18.49.41.61.02,0,.02.03,0,.02-.12-.06-.23-.13-.31-.23-.38-.49.14-1.09.54-1.37.29-.2.64-.36,1-.32.62.08.67.69.46,1.17-.24.57-.72,1.06-1.21,1.41.22.08.43.19.64.28.22.1.43.2.66.28.6.23,1.23.36,1.87.35.44-.01.9-.09,1.3-.27.13-.06.25-.13.36-.22.1-.08.18-.17.27-.25.07-.07.13-.13.19-.2-.09.11-.19.23-.29.34-.44.56-1.2.71-1.88.71"></path>
    <path class="cls-4" d="M4184.1,2481.09c.12-.03.23-.07.23-.09,0,0,0-.01-.02-.01-.05,0-.14.05-.21.1M4184.44,2481.13s0,.01-.01.01c-.1.04-.23.07-.33.07-.06,0-.08-.02-.08-.04,0-.01,0-.03.02-.04h-.04s-.01,0-.01,0,0-.01.01-.01l.07-.02c.1-.09.19-.14.25-.14.03,0,.04.01.04.03,0,.04-.13.08-.29.13-.02.02-.03.04-.03.05,0,.01,0,.02.05.02.1,0,.22-.04.33-.07,0,0,.01,0,.01,0"></path>
    <path class="cls-2" d="M4184.1,2481.09c.12-.03.23-.07.23-.09,0,0,0-.01-.02-.01-.05,0-.14.05-.21.1ZM4184.44,2481.13s0,.01-.01.01c-.1.04-.23.07-.33.07-.06,0-.08-.02-.08-.04,0-.01,0-.03.02-.04h-.04s-.01,0-.01,0,0-.01.01-.01l.07-.02c.1-.09.19-.14.25-.14.03,0,.04.01.04.03,0,.04-.13.08-.29.13-.02.02-.03.04-.03.05,0,.01,0,.02.05.02.1,0,.22-.04.33-.07,0,0,.01,0,.01,0Z"></path>
    <path class="cls-4" d="M4184.78,2480.98c.81-.36,1.38-.95,1.38-1.06,0-.03-.01-.04-.04-.04-.09,0-.27.11-.7.52-.24.22-.49.43-.64.58M4184.45,2481.12s0-.01.01-.02c.08-.03.16-.06.24-.09.16-.16.44-.38.71-.64.41-.39.61-.52.72-.52.04,0,.06.02.06.06,0,.12-.61.77-1.46,1.12-.07.07-.11.12-.11.14,0,0,.01.02.03.02.05,0,.24-.06.41-.18,0-.05.05-.09.08-.09.01,0,.02,0,.02.02,0,.02-.02.04-.07.07,0,.02.06.02.13.02,0,0,.01,0,.01.01s0,.01-.01.01c-.08,0-.14,0-.16-.03-.18.12-.37.19-.42.19-.04,0-.06-.01-.06-.03,0-.03.02-.07.07-.12-.07.03-.13.05-.2.07,0,0-.01,0-.01,0"></path>
    <path class="cls-2" d="M4184.78,2480.98c.81-.36,1.38-.95,1.38-1.06,0-.03-.01-.04-.04-.04-.09,0-.27.11-.7.52-.24.22-.49.43-.64.58ZM4184.45,2481.12s0-.01.01-.02c.08-.03.16-.06.24-.09.16-.16.44-.38.71-.64.41-.39.61-.52.72-.52.04,0,.06.02.06.06,0,.12-.61.77-1.46,1.12-.07.07-.11.12-.11.14,0,0,.01.02.03.02.05,0,.24-.06.41-.18,0-.05.05-.09.08-.09.01,0,.02,0,.02.02,0,.02-.02.04-.07.07,0,.02.06.02.13.02,0,0,.01,0,.01.01s0,.01-.01.01c-.08,0-.14,0-.16-.03-.18.12-.37.19-.42.19-.04,0-.06-.01-.06-.03,0-.03.02-.07.07-.12-.07.03-.13.05-.2.07,0,0-.01,0-.01,0Z"></path>
    <path class="cls-4" d="M4185.41,2481.04c.09-.01.18-.03.18-.05,0,0,0-.01-.02-.01-.04,0-.1.02-.16.06M4185.69,2481.13s0,.01-.01.01c-.1.04-.23.07-.33.07-.06,0-.08-.02-.08-.04,0-.03.03-.07.06-.1-.03,0-.06,0-.09,0,0,0-.01,0-.01-.01s0-.01.01-.01c.03,0,.08,0,.12,0,.06-.05.14-.08.2-.08.03,0,.04.01.04.03,0,.03-.12.06-.24.07-.04.03-.07.07-.07.1,0,.01,0,.02.05.02.1,0,.22-.04.33-.07,0,0,.01,0,.01,0"></path>
    <path class="cls-2" d="M4185.41,2481.04c.09-.01.18-.03.18-.05,0,0,0-.01-.02-.01-.04,0-.1.02-.16.06ZM4185.69,2481.13s0,.01-.01.01c-.1.04-.23.07-.33.07-.06,0-.08-.02-.08-.04,0-.03.03-.07.06-.1-.03,0-.06,0-.09,0,0,0-.01,0-.01-.01s0-.01.01-.01c.03,0,.08,0,.12,0,.06-.05.14-.08.2-.08.03,0,.04.01.04.03,0,.03-.12.06-.24.07-.04.03-.07.07-.07.1,0,.01,0,.02.05.02.1,0,.22-.04.33-.07,0,0,.01,0,.01,0Z"></path>
    <path class="cls-4" d="M4186.36,2481.13s0,.01-.01.01c-.2.06-.33.08-.42.08-.06,0-.08-.02-.08-.04,0-.03.03-.07.07-.1h0c-.07.02-.12.04-.2.07,0,0-.01,0-.01,0s0-.01.01-.01c.12-.04.14-.04.27-.1.09-.04.18-.05.22-.05.04,0,.06,0,.06.04,0,.02-.01.03-.04.03-.02,0-.03-.01-.03-.03,0,0,0-.01,0-.02-.14,0-.32.13-.32.18,0,.02,0,.03.06.03.07,0,.2-.01.41-.08,0,0,.01,0,.01,0"></path>
    <path class="cls-2" d="M4186.36,2481.13s0,.01-.01.01c-.2.06-.33.08-.42.08-.06,0-.08-.02-.08-.04,0-.03.03-.07.07-.1h0c-.07.02-.12.04-.2.07,0,0-.01,0-.01,0s0-.01.01-.01c.12-.04.14-.04.27-.1.09-.04.18-.05.22-.05.04,0,.06,0,.06.04,0,.02-.01.03-.04.03-.02,0-.03-.01-.03-.03,0,0,0-.01,0-.02-.14,0-.32.13-.32.18,0,.02,0,.03.06.03.07,0,.2-.01.41-.08,0,0,.01,0,.01,0Z"></path>
    <path class="cls-4" d="M4187.03,2481.13s0,.01-.01.01c-.2.06-.33.08-.42.08-.06,0-.08-.02-.08-.04,0-.03.03-.07.07-.1h0c-.07.02-.12.04-.2.07,0,0-.01,0-.01,0s0-.01.01-.01c.12-.04.14-.04.28-.1.09-.04.18-.05.22-.05.04,0,.06,0,.06.04,0,.02-.01.03-.04.03-.02,0-.03-.01-.03-.03,0,0,0-.01,0-.02-.14,0-.32.13-.32.18,0,.02,0,.03.06.03.07,0,.2-.01.41-.08,0,0,.01,0,.01,0"></path>
    <path class="cls-2" d="M4187.03,2481.13s0,.01-.01.01c-.2.06-.33.08-.42.08-.06,0-.08-.02-.08-.04,0-.03.03-.07.07-.1h0c-.07.02-.12.04-.2.07,0,0-.01,0-.01,0s0-.01.01-.01c.12-.04.14-.04.28-.1.09-.04.18-.05.22-.05.04,0,.06,0,.06.04,0,.02-.01.03-.04.03-.02,0-.03-.01-.03-.03,0,0,0-.01,0-.02-.14,0-.32.13-.32.18,0,.02,0,.03.06.03.07,0,.2-.01.41-.08,0,0,.01,0,.01,0Z"></path>
    <path class="cls-4" d="M4187.76,2481s-.05-.01-.07-.01c-.22,0-.46.12-.46.18,0,.01.02.02.04.02.1,0,.23-.04.5-.18M4187.89,2481.13s0,.01-.01.01c-.14.05-.21.07-.26.07-.04,0-.06-.01-.06-.03,0-.02.01-.05.06-.09-.18.08-.28.11-.36.11-.04,0-.07-.01-.07-.04s.04-.07.1-.1c-.11.04-.17.05-.24.08,0,0-.01,0-.01,0s0-.01.01-.01c.12-.04.26-.08.37-.11.08-.02.17-.04.27-.04.04,0,.07,0,.1.02h.01s0,0,0,0c-.19.11-.22.15-.22.18,0,0,.01.02.03.02.04,0,.1-.02.25-.07,0,0,.01,0,.01,0"></path>
    <path class="cls-2" d="M4187.76,2481s-.05-.01-.07-.01c-.22,0-.46.12-.46.18,0,.01.02.02.04.02.1,0,.23-.04.5-.18ZM4187.89,2481.13s0,.01-.01.01c-.14.05-.21.07-.26.07-.04,0-.06-.01-.06-.03,0-.02.01-.05.06-.09-.18.08-.28.11-.36.11-.04,0-.07-.01-.07-.04s.04-.07.1-.1c-.11.04-.17.05-.24.08,0,0-.01,0-.01,0s0-.01.01-.01c.12-.04.26-.08.37-.11.08-.02.17-.04.27-.04.04,0,.07,0,.1.02h.01s0,0,0,0c-.19.11-.22.15-.22.18,0,0,.01.02.03.02.04,0,.1-.02.25-.07,0,0,.01,0,.01,0Z"></path>
    <path class="cls-4" d="M4179.57,2480.96c.9-.4,1.54-1.06,1.54-1.19,0-.03-.01-.04-.04-.04-.1,0-.3.13-.78.58-.27.25-.54.48-.72.65M4179.19,2481.12s0-.01.01-.02c.09-.03.18-.06.27-.1.17-.17.49-.42.79-.71.46-.44.68-.58.8-.58.05,0,.06.02.06.07,0,.13-.68.86-1.63,1.25-.08.07-.12.13-.12.15,0,.01.01.02.04.02.05,0,.26-.07.46-.2,0-.05.06-.1.09-.1.01,0,.02.01.02.02,0,.02-.02.04-.07.08,0,.02.06.03.15.03,0,0,.01,0,.01.01s0,.01-.01.01c-.09,0-.15,0-.17-.03-.2.14-.41.21-.47.21-.04,0-.06-.01-.06-.04,0-.03.03-.07.08-.13-.07.03-.15.05-.22.08,0,0-.01,0-.01-.01"></path>
    <path class="cls-2" d="M4179.57,2480.96c.9-.4,1.54-1.06,1.54-1.19,0-.03-.01-.04-.04-.04-.1,0-.3.13-.78.58-.27.25-.54.48-.72.65ZM4179.19,2481.12s0-.01.01-.02c.09-.03.18-.06.27-.1.17-.17.49-.42.79-.71.46-.44.68-.58.8-.58.05,0,.06.02.06.07,0,.13-.68.86-1.63,1.25-.08.07-.12.13-.12.15,0,.01.01.02.04.02.05,0,.26-.07.46-.2,0-.05.06-.1.09-.1.01,0,.02.01.02.02,0,.02-.02.04-.07.08,0,.02.06.03.15.03,0,0,.01,0,.01.01s0,.01-.01.01c-.09,0-.15,0-.17-.03-.2.14-.41.21-.47.21-.04,0-.06-.01-.06-.04,0-.03.03-.07.08-.13-.07.03-.15.05-.22.08,0,0-.01,0-.01-.01Z"></path>
    <path class="cls-4" d="M4180.51,2481.39c-.76.35-1.36.85-1.36,1,0,.03.01.04.04.04.06,0,.34-.16.77-.54.23-.2.39-.35.55-.49M4181.09,2481.15s0,.01-.01.02c-.17.05-.33.12-.49.19-.18.16-.34.31-.61.55-.43.39-.71.55-.79.55-.05,0-.06-.02-.06-.07,0-.18.64-.69,1.46-1.06.1-.08.19-.17.3-.26-.25.15-.42.2-.5.2-.04,0-.06-.01-.06-.04,0-.08.22-.17.22-.22,0-.02-.01-.02-.04-.02-.09,0-.29.09-.44.09,0,0-.01,0-.01-.01s0-.01.01-.01c.16,0,.35-.09.45-.09.04,0,.06.01.06.04,0,.08-.22.18-.22.22,0,.01.01.02.04.02.09,0,.3-.07.63-.28v.02c-.14.13-.26.23-.36.32.14-.06.29-.11.43-.16,0,0,.01,0,.01.01"></path>
    <path class="cls-2" d="M4180.51,2481.39c-.76.35-1.36.85-1.36,1,0,.03.01.04.04.04.06,0,.34-.16.77-.54.23-.2.39-.35.55-.49ZM4181.09,2481.15s0,.01-.01.02c-.17.05-.33.12-.49.19-.18.16-.34.31-.61.55-.43.39-.71.55-.79.55-.05,0-.06-.02-.06-.07,0-.18.64-.69,1.46-1.06.1-.08.19-.17.3-.26-.25.15-.42.2-.5.2-.04,0-.06-.01-.06-.04,0-.08.22-.17.22-.22,0-.02-.01-.02-.04-.02-.09,0-.29.09-.44.09,0,0-.01,0-.01-.01s0-.01.01-.01c.16,0,.35-.09.45-.09.04,0,.06.01.06.04,0,.08-.22.18-.22.22,0,.01.01.02.04.02.09,0,.3-.07.63-.28v.02c-.14.13-.26.23-.36.32.14-.06.29-.11.43-.16,0,0,.01,0,.01.01Z"></path>
  </g>
</svg>