<?xml version="1.0"?>
<svg id="Layer_1" data-name="Layer 1" xmlns="http://www.w3.org/2000/svg" viewBox="0 0 155 155">
  <defs>

  </defs>
  <polygon fill="#483438" class="cls-1" points="98.2 84.45 101.14 84.45 96.13 75.77 98.17 75.77 92.29 65.58 86.4 75.77 88.45 75.77 83.43 84.45 86.38 84.45 80.83 94.07 90.34 94.07 90.34 100.95 94.24 100.95 94.24 94.07 103.75 94.07 98.2 84.45"></polygon>
  <polygon fill="#483438" class="cls-1" points="68.62 84.45 71.57 84.45 66.55 75.77 68.6 75.77 62.71 65.58 56.83 75.77 58.87 75.77 53.86 84.45 56.8 84.45 51.25 94.07 60.76 94.07 60.76 100.95 64.66 100.95 64.66 94.07 74.17 94.07 68.62 84.45"></polygon>
  <polygon fill="#483438" class="cls-1" points="87.51 79.52 92.5 79.52 84.01 64.81 87.47 64.81 77.5 47.55 67.53 64.81 70.99 64.81 62.5 79.52 67.49 79.52 58.09 95.8 74.2 95.8 74.2 107.45 80.8 107.45 80.8 95.8 96.91 95.8 87.51 79.52"></polygon>
</svg>